<?xml version="1.0" encoding="UTF-8"?>
<!DOCTYPE svg PUBLIC "-//W3C//DTD SVG 1.1//EN" "http://www.w3.org/Graphics/SVG/1.1/DTD/svg11.dtd">
<svg version="1.2" width="198.76mm" height="137.59mm" viewBox="-14 366 19876 13759" preserveAspectRatio="xMidYMid" fill-rule="evenodd" stroke-width="28.222" stroke-linejoin="round" xmlns="http://www.w3.org/2000/svg" xmlns:ooo="http://xml.openoffice.org/svg/export" xmlns:xlink="http://www.w3.org/1999/xlink" xmlns:presentation="http://sun.com/xmlns/staroffice/presentation" xmlns:smil="http://www.w3.org/2001/SMIL20/" xmlns:anim="urn:oasis:names:tc:opendocument:xmlns:animation:1.0" xml:space="preserve">
 <defs class="ClipPathGroup">
  <clipPath id="presentation_clip_path" clipPathUnits="userSpaceOnUse">
   <rect x="-14" y="366" width="19876" height="13759"/>
  </clipPath>
  <clipPath id="presentation_clip_path_shrink" clipPathUnits="userSpaceOnUse">
   <rect x="5" y="379" width="19837" height="13732"/>
  </clipPath>
 </defs>
 <defs class="TextShapeIndex">
  <g ooo:slide="id1" ooo:id-list="id3 id4 id5 id6 id7 id8 id9 id10 id11 id12 id13 id14 id15 id16 id17 id18 id19 id20 id21 id22 id23 id24 id25 id26 id27 id28 id29 id30 id31 id32 id33 id34 id35 id36 id37 id38 id39 id40 id41 id42 id43 id44 id45 id46 id47 id48 id49 id50 id51 id52 id53 id54 id55 id56 id57 id58 id59 id60 id61 id62 id63 id64 id65 id66 id67 id68 id69 id70 id71 id72 id73 id74 id75 id76 id77"/>
 </defs>
 <defs class="EmbeddedBulletChars">
  <g id="bullet-char-template-57356" transform="scale(0.00048828125,-0.00048828125)">
   <path d="M 580,1141 L 1163,571 580,0 -4,571 580,1141 Z"/>
  </g>
  <g id="bullet-char-template-57354" transform="scale(0.00048828125,-0.00048828125)">
   <path d="M 8,1128 L 1137,1128 1137,0 8,0 8,1128 Z"/>
  </g>
  <g id="bullet-char-template-10146" transform="scale(0.00048828125,-0.00048828125)">
   <path d="M 174,0 L 602,739 174,1481 1456,739 174,0 Z M 1358,739 L 309,1346 659,739 1358,739 Z"/>
  </g>
  <g id="bullet-char-template-10132" transform="scale(0.00048828125,-0.00048828125)">
   <path d="M 2015,739 L 1276,0 717,0 1260,543 174,543 174,936 1260,936 717,1481 1274,1481 2015,739 Z"/>
  </g>
  <g id="bullet-char-template-10007" transform="scale(0.00048828125,-0.00048828125)">
   <path d="M 0,-2 C -7,14 -16,27 -25,37 L 356,567 C 262,823 215,952 215,954 215,979 228,992 255,992 264,992 276,990 289,987 310,991 331,999 354,1012 L 381,999 492,748 772,1049 836,1024 860,1049 C 881,1039 901,1025 922,1006 886,937 835,863 770,784 769,783 710,716 594,584 L 774,223 C 774,196 753,168 711,139 L 727,119 C 717,90 699,76 672,76 641,76 570,178 457,381 L 164,-76 C 142,-110 111,-127 72,-127 30,-127 9,-110 8,-76 1,-67 -2,-52 -2,-32 -2,-23 -1,-13 0,-2 Z"/>
  </g>
  <g id="bullet-char-template-10004" transform="scale(0.00048828125,-0.00048828125)">
   <path d="M 285,-33 C 182,-33 111,30 74,156 52,228 41,333 41,471 41,549 55,616 82,672 116,743 169,778 240,778 293,778 328,747 346,684 L 369,508 C 377,444 397,411 428,410 L 1163,1116 C 1174,1127 1196,1133 1229,1133 1271,1133 1292,1118 1292,1087 L 1292,965 C 1292,929 1282,901 1262,881 L 442,47 C 390,-6 338,-33 285,-33 Z"/>
  </g>
  <g id="bullet-char-template-9679" transform="scale(0.00048828125,-0.00048828125)">
   <path d="M 813,0 C 632,0 489,54 383,161 276,268 223,411 223,592 223,773 276,916 383,1023 489,1130 632,1184 813,1184 992,1184 1136,1130 1245,1023 1353,916 1407,772 1407,592 1407,412 1353,268 1245,161 1136,54 992,0 813,0 Z"/>
  </g>
  <g id="bullet-char-template-8226" transform="scale(0.00048828125,-0.00048828125)">
   <path d="M 346,457 C 273,457 209,483 155,535 101,586 74,649 74,723 74,796 101,859 155,911 209,963 273,989 346,989 419,989 480,963 531,910 582,859 608,796 608,723 608,648 583,586 532,535 482,483 420,457 346,457 Z"/>
  </g>
  <g id="bullet-char-template-8211" transform="scale(0.00048828125,-0.00048828125)">
   <path d="M -4,459 L 1135,459 1135,606 -4,606 -4,459 Z"/>
  </g>
  <g id="bullet-char-template-61548" transform="scale(0.00048828125,-0.00048828125)">
   <path d="M 173,740 C 173,903 231,1043 346,1159 462,1274 601,1332 765,1332 928,1332 1067,1274 1183,1159 1299,1043 1357,903 1357,740 1357,577 1299,437 1183,322 1067,206 928,148 765,148 601,148 462,206 346,322 231,437 173,577 173,740 Z"/>
  </g>
 </defs>
 <defs class="TextEmbeddedBitmaps"/>
 <g class="SlideGroup">
  <g>
   <g id="container-id1">
    <g id="id1" class="Slide" clip-path="url(#presentation_clip_path)">
     <g class="Page">
      <g class="com.sun.star.drawing.ClosedBezierShape">
       <g id="id3">
        <rect class="BoundingBox" stroke="none" fill="none" x="0" y="3888" width="2375" height="2376"/>
        <path fill="rgb(207,226,243)" stroke="none" d="M 0,5076 C 0,4420 531,3889 1187,3889 1842,3889 2374,4420 2374,5076 2374,5731 1842,6263 1187,6263 531,6263 0,5731 0,5076 Z"/>
       </g>
      </g>
      <g class="com.sun.star.drawing.ClosedBezierShape">
       <g id="id4">
        <rect class="BoundingBox" stroke="none" fill="none" x="682" y="4597" width="1010" height="249"/>
        <path fill="rgb(165,180,194)" stroke="none" d="M 683,4721 C 683,4653 738,4597 807,4597 875,4597 930,4653 930,4721 930,4790 875,4845 807,4845 738,4845 683,4790 683,4721 Z M 1444,4721 C 1444,4653 1499,4597 1568,4597 1636,4597 1691,4653 1691,4721 1691,4790 1636,4845 1568,4845 1499,4845 1444,4790 1444,4721 Z"/>
       </g>
      </g>
      <g class="com.sun.star.drawing.ClosedBezierShape">
       <g id="id5">
        <rect class="BoundingBox" stroke="none" fill="none" x="543" y="5593" width="1286" height="223"/>
       </g>
      </g>
      <g class="com.sun.star.drawing.ClosedBezierShape">
       <g id="id6">
        <rect class="BoundingBox" stroke="none" fill="none" x="0" y="3888" width="2375" height="2376"/>
       </g>
      </g>
      <g class="com.sun.star.drawing.OpenBezierShape">
       <g id="id7">
        <rect class="BoundingBox" stroke="none" fill="none" x="669" y="4583" width="1037" height="277"/>
        <path fill="none" stroke="rgb(0,0,0)" stroke-width="27" stroke-linejoin="round" d="M 683,4721 C 683,4653 738,4597 807,4597 875,4597 930,4653 930,4721 930,4790 875,4845 807,4845 738,4845 683,4790 683,4721 Z"/>
        <path fill="none" stroke="rgb(0,0,0)" stroke-width="27" stroke-linejoin="round" d="M 1444,4721 C 1444,4653 1499,4597 1568,4597 1636,4597 1691,4653 1691,4721 1691,4790 1636,4845 1568,4845 1499,4845 1444,4790 1444,4721 Z"/>
       </g>
      </g>
      <g class="com.sun.star.drawing.OpenBezierShape">
       <g id="id8">
        <rect class="BoundingBox" stroke="none" fill="none" x="529" y="5579" width="1314" height="251"/>
        <path fill="none" stroke="rgb(0,0,0)" stroke-width="27" stroke-linejoin="round" d="M 543,5593 C 972,5889 1400,5889 1828,5593"/>
       </g>
      </g>
      <g class="com.sun.star.drawing.ClosedBezierShape">
       <g id="id9">
        <rect class="BoundingBox" stroke="none" fill="none" x="-14" y="3875" width="2403" height="2403"/>
        <path fill="none" stroke="rgb(0,0,0)" stroke-width="27" stroke-linejoin="round" d="M 0,5076 C 0,4420 531,3889 1187,3889 1842,3889 2374,4420 2374,5076 2374,5731 1842,6263 1187,6263 531,6263 0,5731 0,5076 Z"/>
       </g>
      </g>
      <g class="com.sun.star.drawing.PolyPolygonShape">
       <g id="id10">
        <rect class="BoundingBox" stroke="none" fill="none" x="3979" y="379" width="3354" height="2375"/>
        <path fill="rgb(207,226,243)" stroke="none" d="M 3979,379 L 7331,379 7331,2753 3979,2753 3979,379 Z"/>
       </g>
      </g>
      <g class="com.sun.star.drawing.PolyPolygonShape">
       <g id="id11">
        <rect class="BoundingBox" stroke="none" fill="none" x="3965" y="365" width="3381" height="2403"/>
        <path fill="none" stroke="rgb(0,0,0)" stroke-width="27" stroke-linejoin="round" d="M 3979,379 L 7331,379 7331,2753 3979,2753 3979,379 Z"/>
       </g>
      </g>
      <g class="com.sun.star.drawing.ClosedBezierShape">
       <g id="id12">
        <rect class="BoundingBox" stroke="none" fill="none" x="4349" y="4284" width="2376" height="1584"/>
        <path fill="rgb(207,226,243)" stroke="none" d="M 4350,4548 C 4350,4402 4881,4284 5537,4284 6192,4284 6724,4402 6724,4548 L 6724,5603 C 6724,5749 6192,5867 5537,5867 4881,5867 4350,5749 4350,5603 L 4350,4548 Z"/>
       </g>
      </g>
      <g class="com.sun.star.drawing.ClosedBezierShape">
       <g id="id13">
        <rect class="BoundingBox" stroke="none" fill="none" x="4349" y="4548" width="2376" height="266"/>
       </g>
      </g>
      <g class="com.sun.star.drawing.ClosedBezierShape">
       <g id="id14">
        <rect class="BoundingBox" stroke="none" fill="none" x="4349" y="4284" width="2376" height="1584"/>
       </g>
      </g>
      <g class="com.sun.star.drawing.OpenBezierShape">
       <g id="id15">
        <rect class="BoundingBox" stroke="none" fill="none" x="4336" y="4534" width="2403" height="294"/>
        <path fill="none" stroke="rgb(0,0,0)" stroke-width="27" stroke-linejoin="round" d="M 6724,4548 C 6724,4694 6192,4813 5537,4813 4881,4813 4350,4694 4350,4548"/>
       </g>
      </g>
      <g class="com.sun.star.drawing.ClosedBezierShape">
       <g id="id16">
        <rect class="BoundingBox" stroke="none" fill="none" x="4336" y="4270" width="2403" height="1612"/>
        <path fill="none" stroke="rgb(0,0,0)" stroke-width="27" stroke-linejoin="round" d="M 4350,4548 C 4350,4402 4881,4284 5537,4284 6192,4284 6724,4402 6724,4548 L 6724,5603 C 6724,5749 6192,5867 5537,5867 4881,5867 4350,5749 4350,5603 L 4350,4548 Z"/>
       </g>
      </g>
      <g class="com.sun.star.drawing.PolyPolygonShape">
       <g id="id17">
        <rect class="BoundingBox" stroke="none" fill="none" x="9144" y="379" width="3488" height="2375"/>
        <path fill="rgb(207,226,243)" stroke="none" d="M 9145,379 L 12631,379 12631,2753 9145,2753 9145,379 Z"/>
       </g>
      </g>
      <g class="com.sun.star.drawing.PolyPolygonShape">
       <g id="id18">
        <rect class="BoundingBox" stroke="none" fill="none" x="9131" y="365" width="3515" height="2403"/>
        <path fill="none" stroke="rgb(0,0,0)" stroke-width="27" stroke-linejoin="round" d="M 9145,379 L 12631,379 12631,2753 9145,2753 9145,379 Z"/>
       </g>
      </g>
      <g class="com.sun.star.drawing.PolyPolygonShape">
       <g id="id19">
        <rect class="BoundingBox" stroke="none" fill="none" x="14633" y="379" width="2375" height="2375"/>
        <path fill="rgb(207,226,243)" stroke="none" d="M 14633,379 L 17007,379 17007,2753 14633,2753 14633,379 Z"/>
       </g>
      </g>
      <g class="com.sun.star.drawing.PolyPolygonShape">
       <g id="id20">
        <rect class="BoundingBox" stroke="none" fill="none" x="14619" y="365" width="2403" height="2403"/>
        <path fill="none" stroke="rgb(0,0,0)" stroke-width="27" stroke-linejoin="round" d="M 14633,379 L 17007,379 17007,2753 14633,2753 14633,379 Z"/>
       </g>
      </g>
      <g class="com.sun.star.drawing.PolyPolygonShape">
       <g id="id21">
        <rect class="BoundingBox" stroke="none" fill="none" x="4349" y="7597" width="2376" height="2375"/>
        <path fill="rgb(207,226,243)" stroke="none" d="M 4350,7597 L 6724,7597 6724,9971 4350,9971 4350,7597 Z"/>
       </g>
      </g>
      <g class="com.sun.star.drawing.PolyPolygonShape">
       <g id="id22">
        <rect class="BoundingBox" stroke="none" fill="none" x="4336" y="7583" width="2403" height="2403"/>
        <path fill="none" stroke="rgb(0,0,0)" stroke-width="27" stroke-linejoin="round" d="M 4350,7597 L 6724,7597 6724,9971 4350,9971 4350,7597 Z"/>
       </g>
      </g>
      <g class="com.sun.star.drawing.PolyPolygonShape">
       <g id="id23">
        <rect class="BoundingBox" stroke="none" fill="none" x="17475" y="3455" width="2375" height="2376"/>
        <path fill="rgb(207,226,243)" stroke="none" d="M 17475,3456 L 19849,3456 19849,5830 17475,5830 17475,3456 Z"/>
       </g>
      </g>
      <g class="com.sun.star.drawing.PolyPolygonShape">
       <g id="id24">
        <rect class="BoundingBox" stroke="none" fill="none" x="17461" y="3442" width="2403" height="2403"/>
        <path fill="none" stroke="rgb(0,0,0)" stroke-width="27" stroke-linejoin="round" d="M 17475,3456 L 19849,3456 19849,5830 17475,5830 17475,3456 Z"/>
       </g>
      </g>
      <g class="com.sun.star.drawing.PolyPolygonShape">
       <g id="id25">
        <rect class="BoundingBox" stroke="none" fill="none" x="17475" y="6644" width="2375" height="2376"/>
        <path fill="rgb(207,226,243)" stroke="none" d="M 17475,6645 L 19849,6645 19849,9019 17475,9019 17475,6645 Z"/>
       </g>
      </g>
      <g class="com.sun.star.drawing.PolyPolygonShape">
       <g id="id26">
        <rect class="BoundingBox" stroke="none" fill="none" x="17461" y="6631" width="2403" height="2403"/>
        <path fill="none" stroke="rgb(0,0,0)" stroke-width="27" stroke-linejoin="round" d="M 17475,6645 L 19849,6645 19849,9019 17475,9019 17475,6645 Z"/>
       </g>
      </g>
      <g class="com.sun.star.drawing.PolyPolygonShape">
       <g id="id27">
        <rect class="BoundingBox" stroke="none" fill="none" x="17426" y="11736" width="2375" height="2376"/>
        <path fill="rgb(207,226,243)" stroke="none" d="M 17426,11737 L 19800,11737 19800,14111 17426,14111 17426,11737 Z"/>
       </g>
      </g>
      <g class="com.sun.star.drawing.PolyPolygonShape">
       <g id="id28">
        <rect class="BoundingBox" stroke="none" fill="none" x="17412" y="11723" width="2403" height="2403"/>
        <path fill="none" stroke="rgb(0,0,0)" stroke-width="27" stroke-linejoin="round" d="M 17426,11737 L 19800,11737 19800,14111 17426,14111 17426,11737 Z"/>
       </g>
      </g>
      <g class="com.sun.star.drawing.PolyPolygonShape">
       <g id="id29">
        <rect class="BoundingBox" stroke="none" fill="none" x="2422" y="1565" width="1559" height="3536"/>
       </g>
      </g>
      <g class="com.sun.star.drawing.LineShape">
       <g id="id30">
        <rect class="BoundingBox" stroke="none" fill="none" x="2408" y="1701" width="1521" height="3414"/>
        <path fill="none" stroke="rgb(0,0,0)" stroke-width="27" stroke-linejoin="round" d="M 2422,5100 L 3914,1715"/>
       </g>
      </g>
      <g class="com.sun.star.drawing.PolyPolygonShape">
       <g id="id31">
        <rect class="BoundingBox" stroke="none" fill="none" x="3848" y="1566" width="133" height="191"/>
        <path fill="rgb(0,0,0)" stroke="none" d="M 3956,1735 L 3964,1602 3872,1698 3956,1735 Z"/>
        <path fill="none" stroke="rgb(0,0,0)" stroke-width="27" stroke-linejoin="miter" d="M 3956,1735 L 3964,1602 3872,1698 3956,1735 Z"/>
       </g>
      </g>
      <g class="com.sun.star.drawing.PolyPolygonShape">
       <g id="id32">
        <rect class="BoundingBox" stroke="none" fill="none" x="2373" y="5100" width="1979" height="3685"/>
       </g>
      </g>
      <g class="com.sun.star.drawing.LineShape">
       <g id="id33">
        <rect class="BoundingBox" stroke="none" fill="none" x="2359" y="5086" width="1930" height="3568"/>
        <path fill="none" stroke="rgb(0,0,0)" stroke-width="27" stroke-linejoin="round" d="M 2373,5100 L 4274,8639"/>
       </g>
      </g>
      <g class="com.sun.star.drawing.PolyPolygonShape">
       <g id="id34">
        <rect class="BoundingBox" stroke="none" fill="none" x="4209" y="8595" width="143" height="190"/>
        <path fill="rgb(0,0,0)" stroke="none" d="M 4233,8660 L 4332,8749 4313,8617 4233,8660 Z"/>
        <path fill="none" stroke="rgb(0,0,0)" stroke-width="27" stroke-linejoin="miter" d="M 4233,8660 L 4332,8749 4313,8617 4233,8660 Z"/>
       </g>
      </g>
      <g class="com.sun.star.drawing.PolyPolygonShape">
       <g id="id35">
        <rect class="BoundingBox" stroke="none" fill="none" x="5512" y="2752" width="27" height="1534"/>
       </g>
      </g>
      <g class="com.sun.star.drawing.LineShape">
       <g id="id36">
        <rect class="BoundingBox" stroke="none" fill="none" x="5498" y="2738" width="52" height="1398"/>
        <path fill="none" stroke="rgb(0,0,0)" stroke-width="27" stroke-linejoin="round" d="M 5512,2752 L 5535,4121"/>
       </g>
      </g>
      <g class="com.sun.star.drawing.PolyPolygonShape">
       <g id="id37">
        <rect class="BoundingBox" stroke="none" fill="none" x="5469" y="4106" width="131" height="181"/>
        <path fill="rgb(0,0,0)" stroke="none" d="M 5489,4121 L 5537,4246 5580,4120 5489,4121 Z"/>
        <path fill="none" stroke="rgb(0,0,0)" stroke-width="27" stroke-linejoin="miter" d="M 5489,4121 L 5537,4246 5580,4120 5489,4121 Z"/>
       </g>
      </g>
      <g class="com.sun.star.drawing.PolyPolygonShape">
       <g id="id38">
        <rect class="BoundingBox" stroke="none" fill="none" x="5537" y="5915" width="27" height="1683"/>
       </g>
      </g>
      <g class="com.sun.star.drawing.LineShape">
       <g id="id39">
        <rect class="BoundingBox" stroke="none" fill="none" x="5525" y="5901" width="53" height="1547"/>
        <path fill="none" stroke="rgb(0,0,0)" stroke-width="27" stroke-linejoin="round" d="M 5563,5915 L 5539,7433"/>
       </g>
      </g>
      <g class="com.sun.star.drawing.PolyPolygonShape">
       <g id="id40">
        <rect class="BoundingBox" stroke="none" fill="none" x="5474" y="7418" width="132" height="181"/>
        <path fill="rgb(0,0,0)" stroke="none" d="M 5494,7432 L 5538,7558 5585,7433 5494,7432 Z"/>
        <path fill="none" stroke="rgb(0,0,0)" stroke-width="27" stroke-linejoin="miter" d="M 5494,7432 L 5538,7558 5585,7433 5494,7432 Z"/>
       </g>
      </g>
      <g class="com.sun.star.drawing.PolyPolygonShape">
       <g id="id41">
        <rect class="BoundingBox" stroke="none" fill="none" x="7330" y="1565" width="1816" height="1"/>
       </g>
      </g>
      <g class="com.sun.star.drawing.LineShape">
       <g id="id42">
        <rect class="BoundingBox" stroke="none" fill="none" x="7316" y="1551" width="1680" height="29"/>
        <path fill="none" stroke="rgb(0,0,0)" stroke-width="27" stroke-linejoin="round" d="M 7330,1565 L 8981,1565"/>
       </g>
      </g>
      <g class="com.sun.star.drawing.PolyPolygonShape">
       <g id="id43">
        <rect class="BoundingBox" stroke="none" fill="none" x="8967" y="1500" width="180" height="132"/>
        <path fill="rgb(0,0,0)" stroke="none" d="M 8981,1611 L 9106,1566 8981,1520 8981,1611 Z"/>
        <path fill="none" stroke="rgb(0,0,0)" stroke-width="27" stroke-linejoin="miter" d="M 8981,1611 L 9106,1566 8981,1520 8981,1611 Z"/>
       </g>
      </g>
      <g class="com.sun.star.drawing.PolyPolygonShape">
       <g id="id44">
        <rect class="BoundingBox" stroke="none" fill="none" x="12606" y="1565" width="2028" height="52"/>
       </g>
      </g>
      <g class="com.sun.star.drawing.LineShape">
       <g id="id45">
        <rect class="BoundingBox" stroke="none" fill="none" x="12592" y="1555" width="1892" height="76"/>
        <path fill="none" stroke="rgb(0,0,0)" stroke-width="27" stroke-linejoin="round" d="M 12606,1616 L 14469,1569"/>
       </g>
      </g>
      <g class="com.sun.star.drawing.PolyPolygonShape">
       <g id="id46">
        <rect class="BoundingBox" stroke="none" fill="none" x="14454" y="1504" width="181" height="132"/>
        <path fill="rgb(0,0,0)" stroke="none" d="M 14470,1615 L 14594,1567 14468,1524 14470,1615 Z"/>
        <path fill="none" stroke="rgb(0,0,0)" stroke-width="27" stroke-linejoin="miter" d="M 14470,1615 L 14594,1567 14468,1524 14470,1615 Z"/>
       </g>
      </g>
      <g class="com.sun.star.drawing.PolyPolygonShape">
       <g id="id47">
        <rect class="BoundingBox" stroke="none" fill="none" x="6723" y="4643" width="10754" height="4142"/>
       </g>
      </g>
      <g class="com.sun.star.drawing.LineShape">
       <g id="id48">
        <rect class="BoundingBox" stroke="none" fill="none" x="6709" y="4688" width="10629" height="4111"/>
        <path fill="none" stroke="rgb(0,0,0)" stroke-width="27" stroke-linejoin="round" d="M 6723,8784 L 17323,4702"/>
       </g>
      </g>
      <g class="com.sun.star.drawing.PolyPolygonShape">
       <g id="id49">
        <rect class="BoundingBox" stroke="none" fill="none" x="17286" y="4642" width="191" height="127"/>
        <path fill="rgb(0,0,0)" stroke="none" d="M 17339,4745 L 17439,4657 17306,4659 17339,4745 Z"/>
        <path fill="none" stroke="rgb(0,0,0)" stroke-width="27" stroke-linejoin="miter" d="M 17339,4745 L 17439,4657 17306,4659 17339,4745 Z"/>
       </g>
      </g>
      <g class="com.sun.star.drawing.PolyPolygonShape">
       <g id="id50">
        <rect class="BoundingBox" stroke="none" fill="none" x="6699" y="7831" width="10778" height="929"/>
       </g>
      </g>
      <g class="com.sun.star.drawing.LineShape">
       <g id="id51">
        <rect class="BoundingBox" stroke="none" fill="none" x="6685" y="7831" width="10643" height="943"/>
        <path fill="none" stroke="rgb(0,0,0)" stroke-width="27" stroke-linejoin="round" d="M 6699,8759 L 17313,7845"/>
       </g>
      </g>
      <g class="com.sun.star.drawing.PolyPolygonShape">
       <g id="id52">
        <rect class="BoundingBox" stroke="none" fill="none" x="17292" y="7781" width="185" height="132"/>
        <path fill="rgb(0,0,0)" stroke="none" d="M 17316,7891 L 17436,7835 17308,7800 17316,7891 Z"/>
        <path fill="none" stroke="rgb(0,0,0)" stroke-width="27" stroke-linejoin="miter" d="M 17316,7891 L 17436,7835 17308,7800 17316,7891 Z"/>
       </g>
      </g>
      <g class="com.sun.star.drawing.PolyPolygonShape">
       <g id="id53">
        <rect class="BoundingBox" stroke="none" fill="none" x="6748" y="8808" width="10680" height="4117"/>
       </g>
      </g>
      <g class="com.sun.star.drawing.LineShape">
       <g id="id54">
        <rect class="BoundingBox" stroke="none" fill="none" x="6734" y="8794" width="10555" height="4086"/>
        <path fill="none" stroke="rgb(0,0,0)" stroke-width="27" stroke-linejoin="round" d="M 6748,8808 L 17274,12865"/>
       </g>
      </g>
      <g class="com.sun.star.drawing.PolyPolygonShape">
       <g id="id55">
        <rect class="BoundingBox" stroke="none" fill="none" x="17236" y="12799" width="191" height="127"/>
        <path fill="rgb(0,0,0)" stroke="none" d="M 17256,12907 L 17389,12910 17289,12822 17256,12907 Z"/>
        <path fill="none" stroke="rgb(0,0,0)" stroke-width="27" stroke-linejoin="miter" d="M 17256,12907 L 17389,12910 17289,12822 17256,12907 Z"/>
       </g>
      </g>
      <g class="com.sun.star.drawing.PolyPolygonShape">
       <g id="id56">
        <rect class="BoundingBox" stroke="none" fill="none" x="4004" y="893" width="3354" height="1663"/>
       </g>
      </g>
      <g class="com.sun.star.drawing.ClosedBezierShape">
       <g id="id57">
        <rect class="BoundingBox" stroke="none" fill="none" x="4324" y="1311" width="2731" height="418"/>
        <path fill="rgb(0,0,0)" stroke="none" d="M 4390,1535 L 4390,1630 4340,1630 C 4334,1630 4331,1629 4328,1627 4326,1625 4325,1622 4325,1619 4325,1616 4326,1614 4328,1612 4331,1610 4334,1609 4340,1609 L 4368,1609 4368,1332 4340,1332 C 4334,1332 4331,1331 4328,1329 4326,1327 4325,1325 4325,1322 4325,1319 4326,1316 4328,1314 4331,1312 4334,1311 4340,1311 L 4390,1311 4390,1508 4480,1431 4469,1431 C 4464,1431 4460,1430 4458,1428 4456,1426 4455,1424 4455,1421 4455,1417 4456,1415 4458,1413 4460,1411 4464,1410 4469,1410 L 4537,1410 C 4543,1410 4546,1411 4549,1413 4551,1415 4552,1417 4552,1421 4552,1424 4551,1426 4549,1428 4546,1430 4543,1431 4537,1431 L 4513,1431 4429,1501 4535,1609 4559,1609 C 4565,1609 4568,1610 4570,1612 4573,1614 4574,1616 4574,1619 4574,1622 4573,1625 4570,1627 4568,1629 4565,1630 4559,1630 L 4490,1630 C 4485,1630 4482,1629 4479,1627 4477,1625 4476,1622 4476,1619 4476,1616 4477,1614 4479,1612 4482,1610 4485,1609 4490,1609 L 4505,1609 4414,1514 4390,1535 Z M 4860,1525 L 4642,1525 C 4646,1553 4658,1575 4677,1592 4697,1609 4721,1617 4749,1617 4765,1617 4782,1615 4799,1610 4817,1604 4831,1597 4842,1589 4845,1586 4848,1585 4850,1585 4853,1585 4855,1586 4857,1588 4859,1590 4860,1593 4860,1595 4860,1598 4859,1601 4856,1604 4848,1612 4834,1620 4813,1627 4792,1635 4771,1639 4749,1639 4713,1639 4682,1627 4658,1603 4633,1579 4621,1550 4621,1515 4621,1484 4632,1458 4655,1436 4678,1413 4707,1402 4741,1402 4776,1402 4804,1414 4827,1436 4849,1459 4860,1489 4860,1525 Z M 4838,1503 C 4834,1480 4823,1461 4805,1446 4787,1431 4766,1424 4741,1424 4716,1424 4694,1431 4676,1446 4659,1460 4647,1480 4643,1503 L 4838,1503 Z M 5058,1630 L 4959,1431 4953,1431 C 4947,1431 4944,1430 4942,1428 4939,1426 4938,1424 4938,1421 4938,1419 4939,1417 4940,1415 4941,1413 4942,1412 4944,1411 4946,1410 4949,1410 4953,1410 L 5011,1410 C 5016,1410 5020,1411 5022,1413 5024,1415 5025,1417 5025,1421 5025,1424 5024,1426 5022,1428 5020,1430 5016,1431 5011,1431 L 4982,1431 5069,1607 5155,1431 5126,1431 C 5121,1431 5118,1430 5115,1428 5113,1426 5112,1424 5112,1421 5112,1417 5113,1415 5115,1413 5118,1411 5121,1410 5126,1410 L 5184,1410 C 5190,1410 5193,1411 5195,1413 5198,1415 5199,1417 5199,1421 5199,1423 5198,1425 5197,1427 5196,1429 5194,1430 5192,1430 5191,1431 5186,1431 5178,1431 L 5043,1707 5076,1707 C 5081,1707 5085,1708 5087,1710 5090,1712 5091,1714 5091,1717 5091,1721 5090,1723 5087,1725 5085,1727 5081,1728 5076,1728 L 4953,1728 C 4948,1728 4945,1727 4942,1725 4940,1723 4939,1721 4939,1717 4939,1714 4940,1712 4942,1710 4945,1708 4948,1707 4953,1707 L 5020,1707 5058,1630 Z M 5271,1410 L 5271,1431 C 5289,1412 5307,1402 5326,1402 5337,1402 5346,1405 5355,1411 5363,1417 5370,1426 5376,1438 5385,1426 5395,1417 5404,1411 5414,1405 5424,1402 5434,1402 5449,1402 5461,1407 5471,1417 5482,1430 5488,1444 5488,1460 L 5488,1609 5506,1609 C 5512,1609 5515,1610 5517,1612 5519,1614 5521,1616 5521,1619 5521,1622 5519,1625 5517,1627 5515,1629 5512,1630 5506,1630 L 5467,1630 5467,1461 C 5467,1450 5464,1441 5457,1434 5451,1427 5443,1424 5435,1424 5427,1424 5418,1427 5410,1433 5401,1438 5391,1450 5380,1467 L 5380,1609 5398,1609 C 5403,1609 5407,1610 5409,1612 5411,1614 5412,1616 5412,1619 5412,1622 5411,1625 5409,1627 5407,1629 5403,1630 5398,1630 L 5359,1630 5359,1463 C 5359,1452 5356,1442 5349,1435 5342,1427 5335,1424 5326,1424 5319,1424 5311,1426 5304,1431 5294,1438 5283,1450 5271,1467 L 5271,1609 5289,1609 C 5294,1609 5298,1610 5300,1612 5302,1614 5303,1616 5303,1619 5303,1622 5302,1625 5300,1627 5298,1629 5294,1630 5289,1630 L 5232,1630 C 5227,1630 5223,1629 5221,1627 5219,1625 5217,1622 5217,1619 5217,1616 5219,1614 5221,1612 5223,1610 5227,1609 5232,1609 L 5250,1609 5250,1431 5232,1431 C 5227,1431 5223,1430 5221,1428 5219,1426 5217,1424 5217,1421 5217,1417 5219,1415 5221,1413 5223,1411 5227,1410 5232,1410 L 5271,1410 Z M 5741,1630 L 5741,1599 C 5711,1625 5678,1639 5642,1639 5617,1639 5597,1632 5582,1619 5568,1606 5561,1590 5561,1571 5561,1551 5570,1532 5589,1517 5608,1502 5636,1494 5672,1494 5682,1494 5693,1495 5704,1496 5716,1497 5728,1499 5741,1502 L 5741,1467 C 5741,1456 5736,1445 5725,1437 5714,1428 5698,1424 5676,1424 5660,1424 5637,1428 5607,1438 5601,1440 5598,1441 5596,1441 5594,1441 5591,1440 5589,1438 5587,1436 5586,1433 5586,1430 5586,1427 5587,1425 5589,1423 5591,1421 5601,1417 5618,1413 5644,1406 5664,1402 5678,1402 5704,1402 5725,1409 5741,1422 5756,1435 5763,1450 5763,1467 L 5763,1609 5791,1609 C 5797,1609 5800,1610 5802,1612 5805,1614 5806,1616 5806,1619 5806,1622 5805,1625 5802,1627 5800,1629 5797,1630 5791,1630 L 5741,1630 Z M 5741,1524 C 5731,1521 5721,1519 5710,1517 5699,1516 5687,1515 5675,1515 5644,1515 5619,1522 5602,1535 5589,1545 5582,1557 5582,1571 5582,1584 5587,1595 5597,1604 5607,1613 5622,1617 5641,1617 5660,1617 5677,1614 5692,1606 5708,1599 5725,1587 5741,1571 L 5741,1524 Z M 6063,1424 C 6063,1419 6064,1415 6066,1413 6068,1411 6070,1410 6073,1410 6076,1410 6079,1411 6081,1413 6083,1415 6084,1419 6084,1424 L 6084,1461 C 6084,1466 6083,1470 6081,1472 6079,1474 6076,1475 6073,1475 6070,1475 6068,1474 6066,1472 6064,1470 6063,1467 6063,1463 6062,1453 6056,1445 6047,1438 6033,1428 6014,1424 5992,1424 5968,1424 5949,1428 5936,1438 5926,1446 5921,1454 5921,1463 5921,1473 5927,1481 5939,1488 5947,1493 5962,1496 5985,1499 6015,1502 6035,1506 6047,1510 6063,1516 6075,1524 6083,1535 6091,1545 6096,1557 6096,1569 6096,1587 6087,1603 6069,1617 6052,1631 6026,1639 5993,1639 5959,1639 5931,1630 5910,1613 5910,1619 5910,1622 5909,1624 5908,1626 5907,1627 5905,1628 5904,1629 5902,1630 5899,1630 5896,1630 5894,1629 5892,1627 5890,1625 5889,1621 5889,1616 L 5889,1572 C 5889,1567 5890,1563 5892,1561 5894,1559 5896,1558 5899,1558 5903,1558 5905,1559 5907,1561 5909,1563 5910,1566 5910,1569 5910,1577 5912,1584 5916,1589 5922,1597 5931,1604 5944,1609 5957,1615 5973,1617 5992,1617 6020,1617 6040,1612 6054,1602 6067,1591 6074,1580 6074,1569 6074,1556 6067,1545 6054,1537 6040,1529 6019,1524 5993,1521 5966,1518 5948,1515 5936,1511 5925,1506 5916,1499 5909,1490 5903,1482 5899,1472 5899,1462 5899,1444 5908,1429 5926,1418 5944,1408 5966,1402 5991,1402 6020,1402 6044,1409 6063,1424 Z M 6260,1410 L 6376,1410 C 6381,1410 6385,1411 6386,1413 6389,1415 6390,1417 6390,1421 6390,1424 6389,1426 6386,1428 6385,1430 6381,1431 6376,1431 L 6260,1431 6260,1574 C 6260,1586 6265,1597 6275,1605 6285,1613 6299,1617 6319,1617 6333,1617 6348,1615 6365,1611 6382,1606 6395,1601 6404,1596 6408,1594 6411,1593 6413,1593 6415,1593 6418,1594 6420,1596 6422,1598 6423,1601 6423,1604 6423,1606 6422,1608 6419,1610 6414,1616 6401,1622 6380,1629 6359,1635 6339,1639 6320,1639 6295,1639 6275,1633 6260,1621 6246,1609 6239,1594 6239,1574 L 6239,1431 6199,1431 C 6194,1431 6190,1430 6188,1428 6186,1426 6185,1424 6185,1421 6185,1417 6186,1415 6188,1413 6190,1411 6194,1410 6199,1410 L 6239,1410 6239,1347 C 6239,1342 6240,1338 6242,1336 6244,1334 6246,1332 6249,1332 6252,1332 6255,1334 6257,1336 6259,1338 6260,1342 6260,1347 L 6260,1410 Z M 6731,1525 L 6514,1525 C 6518,1553 6529,1575 6549,1592 6568,1609 6592,1617 6621,1617 6637,1617 6653,1615 6671,1610 6688,1604 6702,1597 6713,1589 6716,1586 6719,1585 6721,1585 6724,1585 6727,1586 6729,1588 6731,1590 6732,1593 6732,1595 6732,1598 6730,1601 6727,1604 6719,1612 6705,1620 6684,1627 6663,1635 6642,1639 6621,1639 6584,1639 6554,1627 6529,1603 6505,1579 6492,1550 6492,1515 6492,1484 6504,1458 6527,1436 6550,1413 6578,1402 6612,1402 6647,1402 6675,1414 6698,1436 6720,1459 6732,1489 6731,1525 Z M 6709,1503 C 6705,1480 6694,1461 6676,1446 6658,1431 6637,1424 6612,1424 6587,1424 6565,1431 6548,1446 6530,1460 6519,1480 6514,1503 L 6709,1503 Z M 6902,1410 L 6902,1464 C 6930,1439 6951,1423 6965,1415 6978,1408 6991,1404 7003,1404 7015,1404 7027,1409 7038,1417 7049,1426 7054,1432 7054,1437 7054,1440 7053,1443 7051,1445 7049,1447 7047,1448 7043,1448 7041,1448 7040,1448 7039,1447 7038,1447 7036,1445 7032,1441 7027,1435 7021,1431 7017,1429 7012,1427 7008,1426 7004,1426 6995,1426 6984,1429 6971,1437 6957,1444 6935,1463 6902,1492 L 6902,1609 6997,1609 C 7002,1609 7005,1610 7008,1612 7010,1614 7011,1616 7011,1619 7011,1622 7010,1625 7008,1627 7005,1629 7002,1630 6997,1630 L 6829,1630 C 6824,1630 6821,1629 6818,1627 6816,1625 6815,1623 6815,1620 6815,1617 6816,1615 6818,1613 6820,1611 6824,1610 6829,1610 L 6881,1610 6881,1431 6841,1431 C 6836,1431 6833,1430 6830,1428 6828,1426 6827,1424 6827,1421 6827,1417 6828,1415 6830,1413 6833,1411 6836,1410 6841,1410 L 6902,1410 Z"/>
       </g>
      </g>
      <g class="com.sun.star.drawing.PolyPolygonShape">
       <g id="id58">
        <rect class="BoundingBox" stroke="none" fill="none" x="9145" y="893" width="3701" height="1663"/>
       </g>
      </g>
      <g class="com.sun.star.drawing.ClosedBezierShape">
       <g id="id59">
        <rect class="BoundingBox" stroke="none" fill="none" x="9484" y="1311" width="3063" height="418"/>
        <path fill="rgb(0,0,0)" stroke="none" d="M 9549,1535 L 9549,1630 9499,1630 C 9493,1630 9490,1629 9487,1627 9485,1625 9484,1622 9484,1619 9484,1616 9485,1614 9487,1612 9490,1610 9493,1609 9499,1609 L 9527,1609 9527,1332 9499,1332 C 9493,1332 9490,1331 9487,1329 9485,1327 9484,1325 9484,1322 9484,1319 9485,1316 9487,1314 9490,1312 9493,1311 9499,1311 L 9549,1311 9549,1508 9639,1431 9628,1431 C 9623,1431 9619,1430 9617,1428 9615,1426 9614,1424 9614,1421 9614,1417 9615,1415 9617,1413 9619,1411 9623,1410 9628,1410 L 9696,1410 C 9702,1410 9705,1411 9708,1413 9710,1415 9711,1417 9711,1421 9711,1424 9710,1426 9708,1428 9705,1430 9702,1431 9696,1431 L 9672,1431 9588,1501 9694,1609 9718,1609 C 9724,1609 9727,1610 9729,1612 9732,1614 9733,1616 9733,1619 9733,1622 9732,1625 9729,1627 9727,1629 9724,1630 9718,1630 L 9649,1630 C 9644,1630 9641,1629 9638,1627 9636,1625 9635,1622 9635,1619 9635,1616 9636,1614 9638,1612 9641,1610 9644,1609 9649,1609 L 9664,1609 9573,1514 9549,1535 Z M 10019,1525 L 9801,1525 C 9805,1553 9817,1575 9836,1592 9856,1609 9880,1617 9908,1617 9924,1617 9941,1615 9958,1610 9976,1604 9990,1597 10001,1589 10004,1586 10007,1585 10009,1585 10012,1585 10014,1586 10016,1588 10018,1590 10019,1593 10019,1595 10019,1598 10018,1601 10015,1604 10007,1612 9993,1620 9972,1627 9951,1635 9930,1639 9908,1639 9872,1639 9841,1627 9817,1603 9792,1579 9780,1550 9780,1515 9780,1484 9791,1458 9814,1436 9837,1413 9866,1402 9900,1402 9934,1402 9963,1414 9986,1436 10008,1459 10019,1489 10019,1525 Z M 9997,1503 C 9993,1480 9982,1461 9964,1446 9946,1431 9925,1424 9900,1424 9875,1424 9853,1431 9835,1446 9818,1460 9806,1480 9802,1503 L 9997,1503 Z M 10217,1630 L 10118,1431 10112,1431 C 10106,1431 10103,1430 10100,1428 10098,1426 10097,1424 10097,1421 10097,1419 10098,1417 10099,1415 10100,1413 10101,1412 10103,1411 10105,1410 10108,1410 10112,1410 L 10170,1410 C 10175,1410 10179,1411 10181,1413 10183,1415 10184,1417 10184,1421 10184,1424 10183,1426 10181,1428 10179,1430 10175,1431 10170,1431 L 10141,1431 10228,1607 10314,1431 10285,1431 C 10280,1431 10277,1430 10274,1428 10272,1426 10271,1424 10271,1421 10271,1417 10272,1415 10274,1413 10277,1411 10280,1410 10285,1410 L 10343,1410 C 10349,1410 10352,1411 10354,1413 10357,1415 10358,1417 10358,1421 10358,1423 10357,1425 10356,1427 10354,1429 10353,1430 10351,1430 10350,1431 10345,1431 10337,1431 L 10202,1707 10235,1707 C 10240,1707 10244,1708 10246,1710 10248,1712 10250,1714 10250,1717 10250,1721 10248,1723 10246,1725 10244,1727 10240,1728 10235,1728 L 10112,1728 C 10107,1728 10104,1727 10101,1725 10099,1723 10098,1721 10098,1717 10098,1714 10099,1712 10101,1710 10104,1708 10107,1707 10112,1707 L 10179,1707 10217,1630 Z M 10430,1410 L 10430,1431 C 10448,1412 10466,1402 10485,1402 10496,1402 10505,1405 10514,1411 10522,1417 10529,1426 10535,1438 10544,1426 10554,1417 10563,1411 10573,1405 10583,1402 10593,1402 10608,1402 10620,1407 10629,1417 10641,1430 10647,1444 10647,1460 L 10647,1609 10665,1609 C 10670,1609 10674,1610 10676,1612 10678,1614 10679,1616 10679,1619 10679,1622 10678,1625 10676,1627 10674,1629 10670,1630 10665,1630 L 10626,1630 10626,1461 C 10626,1450 10623,1441 10616,1434 10610,1427 10602,1424 10594,1424 10586,1424 10577,1427 10569,1433 10560,1438 10550,1450 10539,1467 L 10539,1609 10557,1609 C 10562,1609 10566,1610 10568,1612 10570,1614 10571,1616 10571,1619 10571,1622 10570,1625 10568,1627 10566,1629 10562,1630 10557,1630 L 10518,1630 10518,1463 C 10518,1452 10514,1442 10508,1435 10501,1427 10494,1424 10485,1424 10478,1424 10470,1426 10463,1431 10453,1438 10442,1450 10430,1467 L 10430,1609 10448,1609 C 10453,1609 10457,1610 10459,1612 10461,1614 10462,1616 10462,1619 10462,1622 10461,1625 10459,1627 10457,1629 10453,1630 10448,1630 L 10391,1630 C 10386,1630 10382,1629 10380,1627 10378,1625 10376,1622 10376,1619 10376,1616 10378,1614 10380,1612 10382,1610 10386,1609 10391,1609 L 10409,1609 10409,1431 10391,1431 C 10386,1431 10382,1430 10380,1428 10378,1426 10376,1424 10376,1421 10376,1417 10378,1415 10380,1413 10382,1411 10386,1410 10391,1410 L 10430,1410 Z M 10900,1630 L 10900,1599 C 10870,1625 10836,1639 10801,1639 10776,1639 10756,1632 10741,1619 10727,1606 10720,1590 10720,1571 10720,1551 10729,1532 10748,1517 10767,1502 10795,1494 10831,1494 10841,1494 10852,1495 10863,1496 10875,1497 10887,1499 10900,1502 L 10900,1467 C 10900,1456 10895,1445 10884,1437 10873,1428 10857,1424 10835,1424 10819,1424 10796,1428 10766,1438 10760,1440 10757,1441 10755,1441 10753,1441 10750,1440 10748,1438 10746,1436 10745,1433 10745,1430 10745,1427 10746,1425 10748,1423 10750,1421 10760,1417 10777,1413 10803,1406 10823,1402 10837,1402 10863,1402 10884,1409 10899,1422 10915,1435 10922,1450 10922,1467 L 10922,1609 10950,1609 C 10956,1609 10959,1610 10961,1612 10964,1614 10965,1616 10965,1619 10965,1622 10964,1625 10961,1627 10959,1629 10956,1630 10950,1630 L 10900,1630 Z M 10900,1524 C 10890,1521 10880,1519 10869,1517 10858,1516 10846,1515 10834,1515 10803,1515 10778,1522 10761,1535 10748,1545 10741,1557 10741,1571 10741,1584 10746,1595 10756,1604 10766,1613 10781,1617 10800,1617 10819,1617 10835,1614 10851,1606 10867,1599 10883,1587 10900,1571 L 10900,1524 Z M 11222,1424 C 11222,1419 11223,1415 11225,1413 11227,1411 11229,1410 11232,1410 11235,1410 11238,1411 11240,1413 11242,1415 11243,1419 11243,1424 L 11243,1461 C 11243,1466 11242,1470 11240,1472 11238,1474 11235,1475 11232,1475 11229,1475 11227,1474 11225,1472 11223,1470 11222,1467 11222,1463 11220,1453 11215,1445 11206,1438 11192,1428 11173,1424 11151,1424 11127,1424 11108,1428 11095,1438 11085,1446 11080,1454 11080,1463 11080,1473 11086,1481 11098,1488 11106,1493 11121,1496 11144,1499 11174,1502 11194,1506 11206,1510 11222,1516 11234,1524 11242,1535 11250,1545 11254,1557 11254,1569 11254,1587 11246,1603 11228,1617 11211,1631 11185,1639 11151,1639 11118,1639 11090,1630 11069,1613 11069,1619 11069,1622 11068,1624 11067,1626 11066,1627 11064,1628 11063,1629 11061,1630 11058,1630 11055,1630 11053,1629 11051,1627 11049,1625 11048,1621 11048,1616 L 11048,1572 C 11048,1567 11049,1563 11051,1561 11053,1559 11055,1558 11058,1558 11061,1558 11064,1559 11066,1561 11068,1563 11069,1566 11069,1569 11069,1577 11071,1584 11075,1589 11081,1597 11090,1604 11103,1609 11116,1615 11132,1617 11151,1617 11179,1617 11199,1612 11213,1602 11226,1591 11233,1580 11233,1569 11233,1556 11226,1545 11213,1537 11199,1529 11178,1524 11152,1521 11125,1518 11106,1515 11095,1511 11084,1506 11075,1499 11068,1490 11062,1482 11058,1472 11058,1462 11058,1444 11067,1429 11085,1418 11103,1408 11125,1402 11150,1402 11179,1402 11203,1409 11222,1424 Z M 11419,1410 L 11535,1410 C 11540,1410 11543,1411 11545,1413 11548,1415 11549,1417 11549,1421 11549,1424 11548,1426 11545,1428 11543,1430 11540,1431 11535,1431 L 11419,1431 11419,1574 C 11419,1586 11424,1597 11434,1605 11444,1613 11458,1617 11477,1617 11492,1617 11507,1615 11524,1611 11541,1606 11554,1601 11563,1596 11567,1594 11569,1593 11571,1593 11574,1593 11577,1594 11579,1596 11581,1598 11582,1601 11582,1604 11582,1606 11581,1608 11578,1610 11573,1616 11560,1622 11539,1629 11518,1635 11498,1639 11479,1639 11454,1639 11434,1633 11419,1621 11405,1609 11398,1594 11398,1574 L 11398,1431 11358,1431 C 11353,1431 11349,1430 11347,1428 11345,1426 11344,1424 11344,1421 11344,1417 11345,1415 11347,1413 11349,1411 11353,1410 11358,1410 L 11398,1410 11398,1347 C 11398,1342 11399,1338 11401,1336 11403,1334 11405,1332 11408,1332 11411,1332 11414,1334 11416,1336 11418,1338 11419,1342 11419,1347 L 11419,1410 Z M 11890,1525 L 11673,1525 C 11677,1553 11688,1575 11708,1592 11727,1609 11751,1617 11780,1617 11795,1617 11812,1615 11830,1610 11847,1604 11861,1597 11872,1589 11875,1586 11878,1585 11880,1585 11883,1585 11886,1586 11888,1588 11890,1590 11891,1593 11891,1595 11891,1598 11889,1601 11886,1604 11878,1612 11864,1620 11843,1627 11822,1635 11801,1639 11780,1639 11743,1639 11713,1627 11688,1603 11664,1579 11651,1550 11651,1515 11651,1484 11663,1458 11685,1436 11709,1413 11737,1402 11771,1402 11806,1402 11834,1414 11857,1436 11879,1459 11890,1489 11890,1525 Z M 11868,1503 C 11864,1480 11853,1461 11835,1446 11817,1431 11796,1424 11771,1424 11746,1424 11724,1431 11706,1446 11689,1460 11678,1480 11673,1503 L 11868,1503 Z M 12061,1410 L 12061,1464 C 12089,1439 12110,1423 12123,1415 12137,1408 12150,1404 12161,1404 12174,1404 12186,1409 12197,1417 12208,1426 12213,1432 12213,1437 12213,1440 12212,1443 12210,1445 12208,1447 12205,1448 12202,1448 12200,1448 12199,1448 12198,1447 12197,1447 12195,1445 12191,1441 12185,1435 12180,1431 12176,1429 12171,1427 12167,1426 12163,1426 12154,1426 12143,1429 12129,1437 12116,1444 12094,1463 12061,1492 L 12061,1609 12155,1609 C 12161,1609 12164,1610 12167,1612 12169,1614 12170,1616 12170,1619 12170,1622 12169,1625 12167,1627 12164,1629 12161,1630 12155,1630 L 11988,1630 C 11983,1630 11980,1629 11977,1627 11975,1625 11974,1623 11974,1620 11974,1617 11975,1615 11977,1613 11979,1611 11983,1610 11988,1610 L 12040,1610 12040,1431 12000,1431 C 11995,1431 11992,1430 11989,1428 11987,1426 11986,1424 11986,1421 11986,1417 11987,1415 11989,1413 11992,1411 11995,1410 12000,1410 L 12061,1410 Z M 12503,1311 L 12503,1609 12531,1609 C 12537,1609 12540,1610 12543,1612 12545,1614 12546,1616 12546,1619 12546,1622 12545,1625 12543,1627 12540,1629 12537,1630 12531,1630 L 12481,1630 12481,1588 C 12457,1622 12425,1639 12387,1639 12368,1639 12350,1633 12332,1623 12314,1613 12300,1598 12290,1580 12280,1560 12275,1541 12275,1520 12275,1500 12280,1481 12290,1462 12300,1443 12314,1428 12332,1418 12350,1407 12368,1402 12387,1402 12425,1402 12456,1419 12481,1453 L 12481,1332 12453,1332 C 12448,1332 12444,1331 12442,1329 12439,1327 12438,1325 12438,1322 12438,1319 12439,1316 12442,1314 12444,1312 12448,1311 12453,1311 L 12503,1311 Z M 12481,1520 C 12481,1493 12472,1470 12454,1452 12435,1433 12414,1424 12389,1424 12363,1424 12342,1433 12323,1452 12305,1470 12296,1493 12296,1520 12296,1547 12305,1570 12323,1589 12342,1608 12363,1617 12389,1617 12414,1617 12435,1608 12454,1589 12472,1570 12481,1547 12481,1520 Z"/>
       </g>
      </g>
      <g class="com.sun.star.drawing.PolyPolygonShape">
       <g id="id60">
        <rect class="BoundingBox" stroke="none" fill="none" x="14657" y="893" width="2376" height="1663"/>
       </g>
      </g>
      <g class="com.sun.star.drawing.ClosedBezierShape">
       <g id="id61">
        <rect class="BoundingBox" stroke="none" fill="none" x="15215" y="1264" width="1275" height="368"/>
        <path fill="rgb(0,0,0)" stroke="none" d="M 15215,1630 L 15215,1264 15264,1264 15264,1587 15443,1587 15443,1630 15215,1630 Z M 15501,1630 L 15501,1264 15627,1264 C 15655,1264 15677,1266 15692,1270 15713,1274 15731,1283 15746,1296 15765,1312 15779,1333 15789,1358 15799,1384 15803,1413 15803,1445 15803,1473 15800,1498 15794,1519 15787,1541 15779,1558 15768,1572 15758,1586 15747,1598 15735,1606 15723,1614 15709,1620 15692,1624 15675,1628 15655,1630 15633,1630 L 15501,1630 Z M 15549,1587 L 15628,1587 C 15652,1587 15670,1585 15684,1581 15698,1576 15709,1570 15717,1561 15728,1550 15737,1534 15744,1515 15750,1496 15753,1472 15753,1444 15753,1406 15747,1377 15735,1356 15722,1336 15707,1322 15689,1315 15676,1310 15655,1307 15626,1307 L 15549,1307 15549,1587 Z M 15830,1630 L 15970,1264 16022,1264 16172,1630 16116,1630 16074,1519 15921,1519 15881,1630 15830,1630 Z M 15935,1480 L 16059,1480 16021,1378 C 16009,1348 16001,1322 15995,1303 15990,1326 15984,1349 15975,1372 L 15935,1480 Z M 16210,1630 L 16210,1264 16348,1264 C 16373,1264 16391,1265 16404,1267 16422,1271 16437,1276 16449,1285 16461,1293 16471,1305 16478,1320 16486,1335 16489,1352 16489,1370 16489,1401 16480,1428 16460,1450 16440,1471 16404,1482 16352,1482 L 16259,1482 16259,1630 16210,1630 Z M 16259,1438 L 16353,1438 C 16384,1438 16407,1433 16420,1421 16433,1409 16439,1393 16439,1372 16439,1356 16436,1343 16428,1332 16420,1321 16410,1314 16397,1311 16389,1308 16374,1307 16352,1307 L 16259,1307 16259,1438 Z"/>
       </g>
      </g>
      <g class="com.sun.star.drawing.PolyPolygonShape">
       <g id="id62">
        <rect class="BoundingBox" stroke="none" fill="none" x="4324" y="8094" width="2376" height="1663"/>
       </g>
      </g>
      <g class="com.sun.star.drawing.ClosedBezierShape">
       <g id="id63">
        <rect class="BoundingBox" stroke="none" fill="none" x="5097" y="8512" width="861" height="329"/>
        <path fill="rgb(0,0,0)" stroke="none" d="M 5271,8625 C 5271,8620 5272,8616 5274,8614 5276,8612 5279,8611 5282,8611 5285,8611 5287,8612 5289,8614 5291,8616 5292,8620 5292,8626 L 5292,8662 C 5292,8667 5291,8671 5289,8673 5287,8675 5285,8676 5282,8676 5279,8676 5276,8675 5274,8674 5272,8672 5271,8668 5271,8664 5270,8654 5265,8646 5255,8639 5241,8630 5223,8625 5200,8625 5176,8625 5158,8630 5144,8639 5134,8647 5130,8655 5130,8664 5130,8674 5135,8683 5147,8689 5155,8694 5171,8698 5194,8700 5223,8703 5244,8707 5255,8711 5272,8717 5284,8726 5292,8736 5300,8746 5304,8758 5304,8770 5304,8788 5295,8804 5278,8818 5261,8833 5235,8840 5201,8840 5167,8840 5140,8831 5118,8814 5118,8820 5118,8824 5117,8825 5117,8827 5115,8828 5114,8830 5112,8831 5110,8831 5108,8831 5105,8831 5102,8830 5100,8828 5098,8826 5097,8822 5097,8817 L 5097,8773 C 5097,8768 5098,8764 5100,8762 5102,8760 5105,8759 5108,8759 5111,8759 5113,8760 5115,8762 5117,8764 5118,8767 5118,8770 5118,8778 5120,8785 5124,8790 5130,8798 5140,8805 5153,8810 5166,8816 5182,8818 5201,8818 5228,8818 5249,8813 5262,8803 5276,8792 5283,8781 5283,8770 5283,8757 5276,8746 5262,8738 5248,8730 5228,8725 5201,8722 5175,8720 5156,8716 5144,8712 5133,8707 5124,8700 5118,8692 5111,8683 5108,8673 5108,8663 5108,8645 5117,8630 5135,8620 5153,8609 5174,8603 5199,8603 5229,8603 5253,8610 5271,8625 Z M 5583,8625 C 5583,8620 5584,8616 5586,8614 5588,8612 5591,8611 5594,8611 5597,8611 5600,8612 5602,8614 5604,8616 5605,8620 5605,8626 L 5605,8662 C 5605,8667 5604,8671 5602,8673 5600,8675 5597,8676 5594,8676 5591,8676 5588,8675 5586,8674 5585,8672 5584,8668 5583,8664 5582,8654 5577,8646 5567,8639 5553,8630 5535,8625 5512,8625 5488,8625 5470,8630 5457,8639 5447,8647 5442,8655 5442,8664 5442,8674 5447,8683 5459,8689 5467,8694 5483,8698 5506,8700 5535,8703 5556,8707 5567,8711 5584,8717 5596,8726 5604,8736 5612,8746 5616,8758 5616,8770 5616,8788 5607,8804 5590,8818 5573,8833 5547,8840 5513,8840 5479,8840 5452,8831 5431,8814 5431,8820 5430,8824 5429,8825 5429,8827 5428,8828 5426,8830 5424,8831 5422,8831 5420,8831 5417,8831 5414,8830 5412,8828 5410,8826 5409,8822 5409,8817 L 5409,8773 C 5409,8768 5410,8764 5412,8762 5414,8760 5417,8759 5420,8759 5423,8759 5426,8760 5428,8762 5430,8764 5431,8767 5431,8770 5431,8778 5433,8785 5437,8790 5442,8798 5452,8805 5465,8810 5478,8816 5494,8818 5513,8818 5540,8818 5561,8813 5574,8803 5588,8792 5595,8781 5595,8770 5595,8757 5588,8746 5574,8738 5560,8730 5540,8725 5514,8722 5487,8720 5468,8716 5457,8712 5445,8707 5436,8700 5430,8692 5423,8683 5420,8673 5420,8663 5420,8645 5429,8630 5447,8620 5465,8609 5486,8603 5511,8603 5541,8603 5565,8610 5583,8625 Z M 5755,8512 L 5755,8644 C 5768,8629 5781,8618 5793,8612 5806,8606 5820,8603 5835,8603 5852,8603 5866,8606 5877,8612 5889,8618 5899,8627 5906,8639 5914,8651 5918,8664 5918,8677 L 5918,8810 5942,8810 C 5947,8810 5951,8811 5953,8813 5955,8815 5957,8817 5957,8821 5957,8824 5955,8826 5953,8828 5951,8830 5947,8831 5942,8831 L 5873,8831 C 5868,8831 5864,8830 5862,8828 5860,8826 5859,8824 5859,8821 5859,8817 5860,8815 5862,8813 5864,8811 5868,8810 5873,8810 L 5897,8810 5897,8679 C 5897,8663 5891,8650 5880,8640 5869,8630 5853,8625 5834,8625 5818,8625 5805,8629 5794,8636 5786,8642 5773,8654 5755,8674 L 5755,8810 5779,8810 C 5784,8810 5787,8811 5789,8813 5792,8815 5793,8817 5793,8821 5793,8824 5792,8826 5789,8828 5787,8830 5784,8831 5779,8831 L 5709,8831 C 5704,8831 5700,8830 5698,8828 5696,8826 5695,8824 5695,8821 5695,8817 5696,8815 5698,8813 5700,8811 5704,8810 5709,8810 L 5733,8810 5733,8533 5705,8533 C 5699,8533 5696,8532 5693,8530 5691,8528 5690,8526 5690,8523 5690,8520 5691,8517 5693,8515 5696,8513 5699,8512 5705,8512 L 5755,8512 Z"/>
       </g>
      </g>
      <g class="com.sun.star.drawing.PolyPolygonShape">
       <g id="id64">
        <rect class="BoundingBox" stroke="none" fill="none" x="17475" y="3914" width="2375" height="1663"/>
       </g>
      </g>
      <g class="com.sun.star.drawing.ClosedBezierShape">
       <g id="id65">
        <rect class="BoundingBox" stroke="none" fill="none" x="17949" y="4283" width="1442" height="375"/>
        <path fill="rgb(0,0,0)" stroke="none" d="M 17949,4651 L 17949,4284 17999,4284 18191,4572 18191,4284 18237,4284 18237,4651 18187,4651 17995,4363 17995,4651 17949,4651 Z M 18296,4518 C 18296,4469 18309,4432 18336,4409 18359,4389 18387,4379 18420,4379 18456,4379 18486,4391 18509,4415 18532,4439 18544,4472 18544,4514 18544,4548 18539,4575 18528,4595 18518,4614 18503,4629 18484,4640 18464,4651 18443,4657 18420,4657 18383,4657 18353,4645 18330,4621 18307,4597 18296,4563 18296,4518 Z M 18342,4518 C 18342,4552 18349,4577 18364,4594 18379,4611 18397,4620 18420,4620 18442,4620 18461,4611 18475,4594 18490,4577 18498,4551 18498,4516 18498,4484 18490,4459 18475,4442 18461,4425 18442,4417 18420,4417 18397,4417 18379,4425 18364,4442 18349,4458 18342,4484 18342,4518 Z M 18768,4651 L 18768,4617 C 18751,4643 18727,4657 18694,4657 18673,4657 18653,4651 18636,4639 18618,4627 18604,4611 18595,4590 18585,4569 18580,4545 18580,4518 18580,4492 18585,4468 18593,4446 18602,4425 18615,4408 18633,4397 18650,4385 18670,4379 18692,4379 18708,4379 18722,4383 18735,4390 18747,4396 18757,4405 18765,4416 L 18765,4284 18810,4284 18810,4651 18768,4651 Z M 18626,4518 C 18626,4552 18633,4578 18648,4594 18662,4611 18679,4620 18698,4620 18718,4620 18735,4612 18748,4596 18762,4579 18769,4555 18769,4522 18769,4486 18762,4459 18748,4442 18734,4425 18717,4417 18696,4417 18676,4417 18660,4425 18646,4441 18633,4457 18626,4483 18626,4518 Z M 19062,4565 L 19108,4571 C 19100,4598 19087,4619 19067,4634 19048,4649 19022,4657 18992,4657 18953,4657 18922,4645 18899,4621 18877,4597 18865,4563 18865,4520 18865,4475 18877,4441 18900,4416 18923,4392 18952,4379 18989,4379 19024,4379 19053,4392 19075,4416 19098,4440 19109,4474 19109,4517 19109,4520 19109,4524 19109,4529 L 18912,4529 C 18913,4558 18922,4581 18936,4597 18951,4612 18970,4620 18992,4620 19008,4620 19022,4615 19034,4607 19046,4598 19055,4584 19062,4565 Z M 18914,4492 L 19062,4492 C 19060,4470 19054,4453 19045,4442 19031,4425 19012,4416 18989,4416 18969,4416 18951,4423 18937,4437 18923,4451 18916,4469 18914,4492 Z M 19152,4470 C 19152,4427 19156,4392 19165,4366 19174,4339 19187,4319 19204,4304 19222,4290 19244,4283 19271,4283 19290,4283 19308,4287 19322,4295 19337,4303 19349,4314 19359,4329 19368,4344 19376,4362 19381,4384 19387,4405 19390,4434 19390,4470 19390,4513 19386,4548 19377,4574 19368,4601 19355,4621 19337,4636 19320,4650 19298,4657 19271,4657 19236,4657 19208,4644 19188,4619 19164,4588 19152,4539 19152,4470 Z M 19198,4470 C 19198,4530 19205,4570 19219,4590 19233,4610 19250,4620 19271,4620 19292,4620 19309,4610 19323,4590 19337,4570 19344,4530 19344,4470 19344,4410 19337,4370 19323,4350 19309,4330 19291,4320 19270,4320 19250,4320 19233,4329 19221,4346 19205,4369 19198,4410 19198,4470 Z"/>
       </g>
      </g>
      <g class="com.sun.star.drawing.PolyPolygonShape">
       <g id="id66">
        <rect class="BoundingBox" stroke="none" fill="none" x="17449" y="7147" width="2376" height="1663"/>
       </g>
      </g>
      <g class="com.sun.star.drawing.ClosedBezierShape">
       <g id="id67">
        <rect class="BoundingBox" stroke="none" fill="none" x="17924" y="7515" width="1373" height="376"/>
        <path fill="rgb(0,0,0)" stroke="none" d="M 17924,7884 L 17924,7517 17974,7517 18166,7805 18166,7517 18212,7517 18212,7884 18162,7884 17970,7596 17970,7884 17924,7884 Z M 18271,7751 C 18271,7702 18284,7665 18311,7642 18334,7622 18362,7612 18395,7612 18431,7612 18461,7624 18484,7648 18507,7672 18519,7705 18519,7747 18519,7781 18514,7808 18503,7828 18493,7847 18478,7862 18459,7873 18439,7884 18418,7890 18395,7890 18358,7890 18328,7878 18305,7854 18282,7830 18271,7796 18271,7751 Z M 18317,7751 C 18317,7785 18324,7810 18339,7827 18354,7844 18372,7853 18395,7853 18417,7853 18436,7844 18450,7827 18465,7810 18473,7784 18473,7749 18473,7717 18465,7692 18450,7675 18436,7658 18417,7650 18395,7650 18372,7650 18354,7658 18339,7675 18324,7691 18317,7717 18317,7751 Z M 18743,7884 L 18743,7850 C 18726,7876 18702,7890 18669,7890 18648,7890 18628,7884 18611,7872 18593,7860 18579,7844 18570,7823 18560,7802 18555,7778 18555,7751 18555,7725 18560,7701 18568,7679 18577,7658 18590,7641 18608,7630 18625,7618 18645,7612 18667,7612 18683,7612 18697,7616 18710,7623 18722,7629 18732,7638 18740,7649 L 18740,7517 18785,7517 18785,7884 18743,7884 Z M 18601,7751 C 18601,7785 18609,7811 18623,7827 18637,7844 18654,7853 18673,7853 18693,7853 18710,7845 18723,7829 18737,7812 18744,7788 18744,7755 18744,7719 18737,7692 18723,7675 18709,7658 18692,7650 18671,7650 18651,7650 18635,7658 18621,7674 18608,7690 18601,7716 18601,7751 Z M 19037,7798 L 19083,7804 C 19075,7831 19062,7852 19042,7867 19023,7882 18997,7890 18967,7890 18928,7890 18897,7878 18874,7854 18852,7830 18840,7796 18840,7753 18840,7708 18852,7674 18875,7649 18898,7625 18927,7612 18964,7612 18999,7612 19028,7625 19050,7649 19073,7673 19084,7707 19084,7750 19084,7753 19084,7757 19084,7762 L 18887,7762 C 18888,7791 18897,7814 18911,7830 18926,7845 18945,7853 18967,7853 18983,7853 18997,7848 19009,7840 19021,7831 19030,7817 19037,7798 Z M 18889,7725 L 19037,7725 C 19035,7703 19029,7686 19020,7675 19006,7658 18987,7649 18964,7649 18944,7649 18926,7656 18912,7670 18898,7684 18891,7702 18889,7725 Z M 19296,7884 L 19251,7884 19251,7597 C 19240,7607 19226,7618 19208,7628 19191,7639 19175,7646 19161,7651 L 19161,7608 C 19186,7596 19208,7582 19227,7565 19246,7548 19259,7532 19267,7516 L 19296,7516 19296,7884 Z"/>
       </g>
      </g>
      <g class="com.sun.star.drawing.PolyPolygonShape">
       <g id="id68">
        <rect class="BoundingBox" stroke="none" fill="none" x="17426" y="12194" width="2424" height="1664"/>
       </g>
      </g>
      <g class="com.sun.star.drawing.ClosedBezierShape">
       <g id="id69">
        <rect class="BoundingBox" stroke="none" fill="none" x="17882" y="12565" width="1509" height="374"/>
        <path fill="rgb(0,0,0)" stroke="none" d="M 17882,12931 L 17882,12565 17932,12565 18124,12852 18124,12565 18170,12565 18170,12931 18120,12931 17928,12643 17928,12931 17882,12931 Z M 18229,12798 C 18229,12749 18242,12713 18269,12690 18292,12670 18320,12660 18353,12660 18389,12660 18419,12672 18442,12696 18465,12720 18477,12753 18477,12795 18477,12829 18472,12856 18461,12876 18451,12895 18436,12910 18417,12921 18397,12932 18376,12937 18353,12937 18316,12937 18286,12925 18263,12902 18240,12878 18229,12843 18229,12798 Z M 18275,12798 C 18275,12832 18282,12858 18297,12875 18312,12892 18330,12900 18353,12900 18375,12900 18394,12892 18408,12875 18423,12858 18431,12832 18431,12797 18431,12764 18423,12740 18408,12723 18394,12706 18375,12697 18353,12697 18330,12697 18312,12706 18297,12723 18282,12739 18275,12764 18275,12798 Z M 18701,12931 L 18701,12898 C 18684,12924 18660,12937 18627,12937 18606,12937 18586,12931 18569,12920 18551,12908 18537,12892 18528,12871 18518,12850 18513,12826 18513,12799 18513,12772 18518,12748 18526,12727 18535,12705 18548,12689 18566,12677 18583,12666 18603,12660 18625,12660 18641,12660 18655,12664 18668,12670 18680,12677 18690,12686 18698,12697 L 18698,12565 18743,12565 18743,12931 18701,12931 Z M 18559,12799 C 18559,12833 18566,12858 18581,12875 18595,12892 18612,12900 18631,12900 18651,12900 18668,12892 18681,12876 18695,12860 18702,12836 18702,12803 18702,12766 18695,12740 18681,12723 18667,12706 18650,12697 18629,12697 18609,12697 18593,12706 18579,12722 18566,12738 18559,12764 18559,12799 Z M 18995,12846 L 19041,12852 C 19033,12879 19020,12900 19000,12915 18980,12930 18955,12937 18924,12937 18886,12937 18855,12925 18832,12902 18810,12878 18798,12844 18798,12801 18798,12756 18810,12722 18833,12697 18856,12672 18885,12660 18922,12660 18957,12660 18986,12672 19008,12697 19031,12721 19042,12754 19042,12798 19042,12801 19042,12805 19042,12810 L 18845,12810 C 18846,12839 18854,12862 18869,12877 18884,12893 18903,12900 18924,12900 18941,12900 18955,12896 18967,12888 18978,12879 18988,12865 18995,12846 Z M 18847,12773 L 18995,12773 C 18993,12751 18987,12734 18978,12723 18964,12706 18945,12697 18922,12697 18902,12697 18884,12704 18870,12718 18856,12732 18849,12750 18847,12773 Z M 19102,12931 L 19102,12565 19152,12565 19344,12852 19344,12565 19390,12565 19390,12931 19340,12931 19149,12643 19149,12931 19102,12931 Z"/>
       </g>
      </g>
      <g class="com.sun.star.drawing.ClosedBezierShape">
       <g id="id70">
        <rect class="BoundingBox" stroke="none" fill="none" x="18427" y="9302" width="374" height="366"/>
        <path fill="rgb(0,0,0)" stroke="none" d="M 18427,9485 C 18427,9384 18510,9302 18613,9302 18662,9302 18710,9321 18745,9355 18780,9390 18799,9436 18799,9485 18799,9586 18716,9667 18613,9667 18510,9667 18427,9586 18427,9485 Z"/>
       </g>
      </g>
      <g class="com.sun.star.drawing.ClosedBezierShape">
       <g id="id71">
        <rect class="BoundingBox" stroke="none" fill="none" x="18413" y="9288" width="401" height="394"/>
        <path fill="none" stroke="rgb(0,0,0)" stroke-width="27" stroke-linejoin="round" d="M 18427,9485 C 18427,9384 18510,9302 18613,9302 18662,9302 18710,9321 18745,9355 18780,9390 18799,9436 18799,9485 18799,9586 18716,9667 18613,9667 18510,9667 18427,9586 18427,9485 Z"/>
       </g>
      </g>
      <g class="com.sun.star.drawing.ClosedBezierShape">
       <g id="id72">
        <rect class="BoundingBox" stroke="none" fill="none" x="18427" y="10136" width="374" height="366"/>
        <path fill="rgb(0,0,0)" stroke="none" d="M 18427,10319 C 18427,10218 18510,10136 18613,10136 18662,10136 18710,10155 18745,10189 18780,10224 18799,10270 18799,10319 18799,10420 18716,10501 18613,10501 18510,10501 18427,10420 18427,10319 Z"/>
       </g>
      </g>
      <g class="com.sun.star.drawing.ClosedBezierShape">
       <g id="id73">
        <rect class="BoundingBox" stroke="none" fill="none" x="18413" y="10122" width="401" height="394"/>
        <path fill="none" stroke="rgb(0,0,0)" stroke-width="27" stroke-linejoin="round" d="M 18427,10319 C 18427,10218 18510,10136 18613,10136 18662,10136 18710,10155 18745,10189 18780,10224 18799,10270 18799,10319 18799,10420 18716,10501 18613,10501 18510,10501 18427,10420 18427,10319 Z"/>
       </g>
      </g>
      <g class="com.sun.star.drawing.ClosedBezierShape">
       <g id="id74">
        <rect class="BoundingBox" stroke="none" fill="none" x="18427" y="10970" width="374" height="367"/>
        <path fill="rgb(0,0,0)" stroke="none" d="M 18427,11153 C 18427,11052 18510,10970 18613,10970 18662,10970 18710,10989 18745,11023 18780,11058 18799,11104 18799,11153 18799,11254 18716,11335 18613,11335 18510,11335 18427,11254 18427,11153 Z"/>
       </g>
      </g>
      <g class="com.sun.star.drawing.ClosedBezierShape">
       <g id="id75">
        <rect class="BoundingBox" stroke="none" fill="none" x="18413" y="10956" width="401" height="394"/>
        <path fill="none" stroke="rgb(0,0,0)" stroke-width="27" stroke-linejoin="round" d="M 18427,11153 C 18427,11052 18510,10970 18613,10970 18662,10970 18710,10989 18745,11023 18780,11058 18799,11104 18799,11153 18799,11254 18716,11335 18613,11335 18510,11335 18427,11254 18427,11153 Z"/>
       </g>
      </g>
      <g class="com.sun.star.drawing.PolyPolygonShape">
       <g id="id76">
        <rect class="BoundingBox" stroke="none" fill="none" x="4349" y="4642" width="2376" height="1190"/>
       </g>
      </g>
      <g class="com.sun.star.drawing.ClosedBezierShape">
       <g id="id77">
        <rect class="BoundingBox" stroke="none" fill="none" x="4649" y="5026" width="1801" height="398"/>
        <path fill="rgb(0,0,0)" stroke="none" d="M 4856,5209 C 4859,5209 4861,5210 4863,5213 4865,5215 4866,5217 4866,5220 4866,5226 4859,5235 4844,5249 4829,5263 4816,5269 4804,5269 4796,5269 4788,5267 4780,5263 4773,5259 4762,5250 4747,5236 4738,5227 4730,5221 4725,5218 4720,5215 4716,5214 4712,5214 4707,5214 4702,5215 4698,5218 4692,5221 4684,5229 4673,5241 4669,5247 4665,5250 4664,5251 4663,5252 4661,5252 4659,5252 4656,5252 4654,5251 4652,5249 4650,5247 4649,5245 4649,5242 4649,5239 4651,5235 4655,5229 4667,5215 4677,5206 4685,5201 4694,5195 4703,5193 4711,5193 4718,5193 4725,5194 4732,5198 4738,5201 4747,5207 4758,5217 4775,5233 4786,5242 4790,5244 4794,5247 4798,5248 4802,5248 4814,5248 4827,5239 4841,5222 4845,5215 4849,5212 4850,5211 4852,5210 4854,5209 4856,5209 Z M 5165,5045 L 4994,5413 C 4991,5419 4987,5422 4983,5422 4980,5422 4977,5421 4975,5419 4973,5417 4972,5415 4972,5412 4972,5410 4973,5407 4975,5404 L 5146,5035 C 5148,5032 5149,5029 5151,5028 5153,5027 5155,5026 5157,5026 5160,5026 5162,5027 5164,5029 5167,5031 5168,5034 5168,5036 5168,5038 5167,5041 5165,5045 Z M 5377,5318 L 5386,5318 C 5396,5318 5404,5322 5411,5328 5417,5335 5421,5343 5421,5352 5421,5362 5417,5370 5411,5377 5404,5384 5396,5387 5386,5387 L 5377,5387 C 5367,5387 5359,5384 5352,5377 5346,5370 5343,5362 5343,5353 5343,5343 5346,5335 5353,5328 5360,5321 5368,5318 5377,5318 Z M 5764,5173 C 5764,5168 5765,5165 5767,5163 5769,5160 5771,5159 5775,5159 5778,5159 5780,5160 5782,5163 5784,5165 5785,5168 5785,5174 L 5785,5210 C 5785,5215 5784,5219 5782,5221 5780,5223 5778,5224 5775,5224 5771,5224 5769,5223 5767,5222 5765,5220 5764,5217 5764,5212 5763,5202 5758,5194 5748,5187 5734,5178 5716,5173 5693,5173 5669,5173 5651,5178 5637,5187 5627,5195 5622,5203 5622,5212 5622,5222 5628,5231 5640,5238 5648,5242 5664,5246 5687,5248 5716,5251 5736,5255 5748,5259 5764,5265 5776,5274 5784,5284 5793,5295 5797,5306 5797,5318 5797,5336 5788,5352 5771,5367 5753,5381 5728,5388 5694,5388 5660,5388 5633,5379 5611,5362 5611,5368 5611,5372 5610,5373 5609,5375 5608,5377 5607,5378 5605,5379 5603,5379 5601,5379 5598,5379 5595,5378 5593,5376 5591,5374 5590,5370 5590,5365 L 5590,5321 C 5590,5316 5591,5312 5593,5310 5595,5308 5598,5307 5601,5307 5604,5307 5606,5308 5608,5310 5610,5312 5611,5315 5611,5319 5611,5326 5613,5333 5617,5338 5623,5346 5633,5353 5646,5358 5659,5364 5675,5367 5693,5367 5721,5367 5742,5361 5755,5351 5769,5341 5775,5330 5775,5318 5775,5305 5769,5294 5755,5286 5741,5278 5721,5273 5694,5271 5668,5268 5649,5264 5637,5260 5626,5255 5617,5249 5610,5240 5604,5231 5601,5221 5601,5211 5601,5193 5610,5178 5628,5168 5646,5157 5667,5152 5692,5152 5721,5152 5745,5159 5764,5173 Z M 6076,5173 C 6076,5168 6077,5165 6079,5163 6081,5160 6083,5159 6087,5159 6090,5159 6092,5160 6094,5163 6096,5165 6097,5168 6097,5174 L 6097,5210 C 6097,5215 6096,5219 6094,5221 6092,5223 6090,5224 6087,5224 6083,5224 6081,5223 6079,5222 6077,5220 6076,5217 6076,5212 6075,5202 6069,5194 6060,5187 6046,5178 6028,5173 6005,5173 5981,5173 5962,5178 5949,5187 5939,5195 5934,5203 5934,5212 5934,5222 5940,5231 5952,5238 5960,5242 5976,5246 5999,5248 6028,5251 6048,5255 6060,5259 6076,5265 6088,5274 6096,5284 6105,5295 6109,5306 6109,5318 6109,5336 6100,5352 6083,5367 6065,5381 6040,5388 6006,5388 5972,5388 5945,5379 5923,5362 5923,5368 5923,5372 5922,5373 5921,5375 5920,5377 5919,5378 5917,5379 5915,5379 5913,5379 5909,5379 5907,5378 5905,5376 5903,5374 5902,5370 5902,5365 L 5902,5321 C 5902,5316 5903,5312 5905,5310 5907,5308 5909,5307 5913,5307 5916,5307 5918,5308 5920,5310 5922,5312 5923,5315 5923,5319 5923,5326 5925,5333 5929,5338 5935,5346 5945,5353 5957,5358 5971,5364 5987,5367 6005,5367 6033,5367 6054,5361 6067,5351 6081,5341 6087,5330 6087,5318 6087,5305 6081,5294 6067,5286 6053,5278 6033,5273 6006,5271 5980,5268 5961,5264 5949,5260 5938,5255 5929,5249 5922,5240 5916,5231 5913,5221 5913,5211 5913,5193 5922,5178 5940,5168 5957,5157 5979,5152 6004,5152 6033,5152 6057,5159 6076,5173 Z M 6247,5060 L 6247,5192 C 6261,5177 6273,5166 6286,5160 6298,5154 6312,5152 6328,5152 6345,5152 6358,5154 6370,5160 6382,5166 6391,5175 6399,5187 6407,5199 6411,5212 6411,5226 L 6411,5358 6434,5358 C 6440,5358 6444,5359 6446,5361 6448,5363 6449,5366 6449,5369 6449,5372 6448,5374 6446,5376 6444,5378 6440,5379 6434,5379 L 6365,5379 C 6360,5379 6356,5378 6354,5376 6352,5374 6351,5372 6351,5369 6351,5366 6352,5363 6354,5361 6356,5359 6360,5358 6365,5358 L 6389,5358 6389,5227 C 6389,5211 6384,5199 6372,5188 6361,5178 6346,5173 6326,5173 6311,5173 6297,5177 6287,5184 6279,5190 6265,5203 6247,5223 L 6247,5358 6271,5358 C 6276,5358 6280,5359 6282,5361 6284,5363 6285,5366 6285,5369 6285,5372 6284,5374 6282,5376 6280,5378 6276,5379 6271,5379 L 6201,5379 C 6197,5379 6193,5378 6191,5376 6188,5374 6187,5372 6187,5369 6187,5366 6188,5363 6191,5361 6193,5359 6197,5358 6201,5358 L 6226,5358 6226,5082 6197,5082 C 6192,5082 6188,5081 6186,5079 6184,5077 6183,5074 6183,5071 6183,5068 6184,5065 6186,5063 6188,5061 6192,5060 6197,5060 L 6247,5060 Z"/>
       </g>
      </g>
     </g>
    </g>
   </g>
  </g>
 </g>
</svg>