<?xml version="1.0" encoding="UTF-8"?>
<!DOCTYPE svg PUBLIC "-//W3C//DTD SVG 1.1//EN" "http://www.w3.org/Graphics/SVG/1.1/DTD/svg11.dtd">
<svg version="1.2" width="109.21mm" height="53.92mm" viewBox="287 274 10921 5392" preserveAspectRatio="xMidYMid" fill-rule="evenodd" stroke-width="28.222" stroke-linejoin="round" xmlns="http://www.w3.org/2000/svg" xmlns:ooo="http://xml.openoffice.org/svg/export" xmlns:xlink="http://www.w3.org/1999/xlink" xmlns:presentation="http://sun.com/xmlns/staroffice/presentation" xmlns:smil="http://www.w3.org/2001/SMIL20/" xmlns:anim="urn:oasis:names:tc:opendocument:xmlns:animation:1.0" xml:space="preserve">
 <defs class="ClipPathGroup">
  <clipPath id="presentation_clip_path" clipPathUnits="userSpaceOnUse">
   <rect x="287" y="274" width="10921" height="5392"/>
  </clipPath>
  <clipPath id="presentation_clip_path_shrink" clipPathUnits="userSpaceOnUse">
   <rect x="297" y="279" width="10900" height="5382"/>
  </clipPath>
 </defs>
 <defs class="TextShapeIndex">
  <g ooo:slide="id1" ooo:id-list="id3 id4 id5 id6 id7 id8 id9 id10 id11 id12 id13 id14 id15 id16 id17 id18 id19 id20 id21 id22 id23 id24 id25 id26 id27 id28 id29 id30 id31 id32 id33 id34"/>
 </defs>
 <defs class="EmbeddedBulletChars">
  <g id="bullet-char-template-57356" transform="scale(0.00048828125,-0.00048828125)">
   <path d="M 580,1141 L 1163,571 580,0 -4,571 580,1141 Z"/>
  </g>
  <g id="bullet-char-template-57354" transform="scale(0.00048828125,-0.00048828125)">
   <path d="M 8,1128 L 1137,1128 1137,0 8,0 8,1128 Z"/>
  </g>
  <g id="bullet-char-template-10146" transform="scale(0.00048828125,-0.00048828125)">
   <path d="M 174,0 L 602,739 174,1481 1456,739 174,0 Z M 1358,739 L 309,1346 659,739 1358,739 Z"/>
  </g>
  <g id="bullet-char-template-10132" transform="scale(0.00048828125,-0.00048828125)">
   <path d="M 2015,739 L 1276,0 717,0 1260,543 174,543 174,936 1260,936 717,1481 1274,1481 2015,739 Z"/>
  </g>
  <g id="bullet-char-template-10007" transform="scale(0.00048828125,-0.00048828125)">
   <path d="M 0,-2 C -7,14 -16,27 -25,37 L 356,567 C 262,823 215,952 215,954 215,979 228,992 255,992 264,992 276,990 289,987 310,991 331,999 354,1012 L 381,999 492,748 772,1049 836,1024 860,1049 C 881,1039 901,1025 922,1006 886,937 835,863 770,784 769,783 710,716 594,584 L 774,223 C 774,196 753,168 711,139 L 727,119 C 717,90 699,76 672,76 641,76 570,178 457,381 L 164,-76 C 142,-110 111,-127 72,-127 30,-127 9,-110 8,-76 1,-67 -2,-52 -2,-32 -2,-23 -1,-13 0,-2 Z"/>
  </g>
  <g id="bullet-char-template-10004" transform="scale(0.00048828125,-0.00048828125)">
   <path d="M 285,-33 C 182,-33 111,30 74,156 52,228 41,333 41,471 41,549 55,616 82,672 116,743 169,778 240,778 293,778 328,747 346,684 L 369,508 C 377,444 397,411 428,410 L 1163,1116 C 1174,1127 1196,1133 1229,1133 1271,1133 1292,1118 1292,1087 L 1292,965 C 1292,929 1282,901 1262,881 L 442,47 C 390,-6 338,-33 285,-33 Z"/>
  </g>
  <g id="bullet-char-template-9679" transform="scale(0.00048828125,-0.00048828125)">
   <path d="M 813,0 C 632,0 489,54 383,161 276,268 223,411 223,592 223,773 276,916 383,1023 489,1130 632,1184 813,1184 992,1184 1136,1130 1245,1023 1353,916 1407,772 1407,592 1407,412 1353,268 1245,161 1136,54 992,0 813,0 Z"/>
  </g>
  <g id="bullet-char-template-8226" transform="scale(0.00048828125,-0.00048828125)">
   <path d="M 346,457 C 273,457 209,483 155,535 101,586 74,649 74,723 74,796 101,859 155,911 209,963 273,989 346,989 419,989 480,963 531,910 582,859 608,796 608,723 608,648 583,586 532,535 482,483 420,457 346,457 Z"/>
  </g>
  <g id="bullet-char-template-8211" transform="scale(0.00048828125,-0.00048828125)">
   <path d="M -4,459 L 1135,459 1135,606 -4,606 -4,459 Z"/>
  </g>
  <g id="bullet-char-template-61548" transform="scale(0.00048828125,-0.00048828125)">
   <path d="M 173,740 C 173,903 231,1043 346,1159 462,1274 601,1332 765,1332 928,1332 1067,1274 1183,1159 1299,1043 1357,903 1357,740 1357,577 1299,437 1183,322 1067,206 928,148 765,148 601,148 462,206 346,322 231,437 173,577 173,740 Z"/>
  </g>
 </defs>
 <defs class="TextEmbeddedBitmaps"/>
 <g class="SlideGroup">
  <g>
   <g id="container-id1">
    <g id="id1" class="Slide" clip-path="url(#presentation_clip_path)">
     <g class="Page">
      <g class="com.sun.star.drawing.ClosedBezierShape">
       <g id="id3">
        <rect class="BoundingBox" stroke="none" fill="none" x="297" y="284" width="1781" height="1781"/>
        <path fill="rgb(207,226,243)" stroke="none" d="M 297,1174 C 297,683 696,284 1187,284 1679,284 2077,683 2077,1174 2077,1666 1679,2064 1187,2064 696,2064 297,1666 297,1174 Z"/>
       </g>
      </g>
      <g class="com.sun.star.drawing.ClosedBezierShape">
       <g id="id4">
        <rect class="BoundingBox" stroke="none" fill="none" x="809" y="815" width="757" height="187"/>
        <path fill="rgb(165,180,194)" stroke="none" d="M 809,908 C 809,857 851,815 902,815 953,815 995,857 995,908 995,960 953,1001 902,1001 851,1001 809,960 809,908 Z M 1380,908 C 1380,857 1421,815 1473,815 1524,815 1565,857 1565,908 1565,960 1524,1001 1473,1001 1421,1001 1380,960 1380,908 Z"/>
       </g>
      </g>
      <g class="com.sun.star.drawing.ClosedBezierShape">
       <g id="id5">
        <rect class="BoundingBox" stroke="none" fill="none" x="704" y="1562" width="965" height="168"/>
       </g>
      </g>
      <g class="com.sun.star.drawing.ClosedBezierShape">
       <g id="id6">
        <rect class="BoundingBox" stroke="none" fill="none" x="297" y="284" width="1781" height="1781"/>
       </g>
      </g>
      <g class="com.sun.star.drawing.OpenBezierShape">
       <g id="id7">
        <rect class="BoundingBox" stroke="none" fill="none" x="798" y="804" width="779" height="209"/>
        <path fill="none" stroke="rgb(0,0,0)" stroke-width="21" stroke-linejoin="round" d="M 809,908 C 809,857 851,815 902,815 953,815 995,857 995,908 995,960 953,1001 902,1001 851,1001 809,960 809,908 Z"/>
        <path fill="none" stroke="rgb(0,0,0)" stroke-width="21" stroke-linejoin="round" d="M 1380,908 C 1380,857 1421,815 1473,815 1524,815 1565,857 1565,908 1565,960 1524,1001 1473,1001 1421,1001 1380,960 1380,908 Z"/>
       </g>
      </g>
      <g class="com.sun.star.drawing.OpenBezierShape">
       <g id="id8">
        <rect class="BoundingBox" stroke="none" fill="none" x="693" y="1551" width="987" height="189"/>
        <path fill="none" stroke="rgb(0,0,0)" stroke-width="21" stroke-linejoin="round" d="M 704,1562 C 1026,1784 1347,1784 1668,1562"/>
       </g>
      </g>
      <g class="com.sun.star.drawing.ClosedBezierShape">
       <g id="id9">
        <rect class="BoundingBox" stroke="none" fill="none" x="286" y="273" width="1803" height="1803"/>
        <path fill="none" stroke="rgb(0,0,0)" stroke-width="21" stroke-linejoin="round" d="M 297,1174 C 297,683 696,284 1187,284 1679,284 2077,683 2077,1174 2077,1666 1679,2064 1187,2064 696,2064 297,1666 297,1174 Z"/>
       </g>
      </g>
      <g class="com.sun.star.drawing.PolyPolygonShape">
       <g id="id10">
        <rect class="BoundingBox" stroke="none" fill="none" x="3578" y="284" width="2616" height="1781"/>
        <path fill="rgb(207,226,243)" stroke="none" d="M 3578,284 L 6193,284 6193,2064 3578,2064 3578,284 Z"/>
       </g>
      </g>
      <g class="com.sun.star.drawing.PolyPolygonShape">
       <g id="id11">
        <rect class="BoundingBox" stroke="none" fill="none" x="3567" y="273" width="2638" height="1803"/>
        <path fill="none" stroke="rgb(0,0,0)" stroke-width="21" stroke-linejoin="round" d="M 3578,284 L 6193,284 6193,2064 3578,2064 3578,284 Z"/>
       </g>
      </g>
      <g class="com.sun.star.drawing.PolyPolygonShape">
       <g id="id12">
        <rect class="BoundingBox" stroke="none" fill="none" x="7693" y="284" width="3505" height="1781"/>
        <path fill="rgb(207,226,243)" stroke="none" d="M 7693,284 L 11197,284 11197,2064 7693,2064 7693,284 Z"/>
       </g>
      </g>
      <g class="com.sun.star.drawing.PolyPolygonShape">
       <g id="id13">
        <rect class="BoundingBox" stroke="none" fill="none" x="7682" y="273" width="3527" height="1803"/>
        <path fill="none" stroke="rgb(0,0,0)" stroke-width="21" stroke-linejoin="round" d="M 7693,284 L 11197,284 11197,2064 7693,2064 7693,284 Z"/>
       </g>
      </g>
      <g class="com.sun.star.drawing.PolyPolygonShape">
       <g id="id14">
        <rect class="BoundingBox" stroke="none" fill="none" x="3493" y="681" width="2794" height="1248"/>
       </g>
      </g>
      <g class="com.sun.star.drawing.ClosedBezierShape">
       <g id="id15">
        <rect class="BoundingBox" stroke="none" fill="none" x="3756" y="993" width="2298" height="315"/>
        <path fill="rgb(0,0,0)" stroke="none" d="M 3804,1162 L 3804,1233 3767,1233 C 3763,1233 3760,1233 3759,1231 3757,1230 3756,1228 3756,1225 3756,1223 3757,1221 3759,1220 3760,1218 3763,1217 3767,1217 L 3788,1217 3788,1010 3767,1010 C 3763,1010 3760,1009 3759,1008 3757,1006 3756,1004 3756,1002 3756,1000 3757,998 3759,996 3760,995 3763,994 3767,994 L 3804,994 3804,1142 3872,1084 3864,1084 C 3860,1084 3857,1084 3856,1082 3854,1081 3853,1079 3853,1076 3853,1074 3854,1072 3856,1071 3857,1069 3860,1068 3864,1068 L 3915,1068 C 3919,1068 3922,1069 3924,1071 3925,1072 3926,1074 3926,1076 3926,1079 3925,1081 3924,1082 3922,1084 3919,1084 3915,1084 L 3897,1084 3834,1137 3913,1217 3932,1217 C 3936,1217 3939,1218 3940,1220 3942,1221 3943,1223 3943,1225 3943,1228 3942,1230 3940,1231 3939,1233 3936,1233 3932,1233 L 3880,1233 C 3876,1233 3873,1233 3872,1231 3870,1230 3869,1228 3869,1225 3869,1223 3870,1221 3872,1220 3873,1218 3876,1217 3880,1217 L 3891,1217 3823,1147 3804,1162 Z M 4157,1155 L 3994,1155 C 3997,1176 4006,1192 4020,1205 4035,1218 4053,1224 4074,1224 4086,1224 4099,1222 4112,1218 4125,1214 4135,1209 4144,1202 4146,1200 4148,1199 4150,1199 4152,1199 4154,1200 4155,1202 4157,1203 4158,1205 4158,1207 4158,1210 4157,1212 4154,1214 4148,1220 4138,1226 4122,1232 4106,1237 4090,1240 4074,1240 4047,1240 4024,1231 4006,1213 3987,1195 3978,1173 3978,1147 3978,1124 3987,1104 4004,1088 4021,1071 4042,1062 4068,1062 4094,1062 4115,1071 4132,1088 4149,1105 4157,1128 4157,1155 Z M 4141,1138 C 4138,1121 4129,1106 4116,1095 4102,1084 4086,1079 4068,1079 4049,1079 4033,1084 4019,1095 4006,1106 3998,1121 3994,1138 L 4141,1138 Z M 4306,1233 L 4232,1084 4227,1084 C 4223,1084 4220,1084 4218,1082 4217,1081 4216,1079 4216,1076 4216,1075 4216,1073 4217,1072 4218,1071 4219,1070 4220,1069 4222,1069 4224,1068 4227,1068 L 4270,1068 C 4274,1068 4277,1069 4279,1071 4280,1072 4281,1074 4281,1076 4281,1079 4280,1081 4279,1082 4277,1084 4274,1084 4270,1084 L 4249,1084 4314,1216 4379,1084 4357,1084 C 4353,1084 4351,1084 4349,1082 4347,1081 4346,1079 4346,1076 4346,1074 4347,1072 4349,1071 4351,1069 4353,1068 4357,1068 L 4400,1068 C 4405,1068 4407,1069 4409,1071 4411,1072 4411,1074 4411,1076 4411,1078 4411,1080 4410,1081 4409,1082 4408,1083 4407,1084 4405,1084 4402,1084 4396,1084 L 4295,1291 4319,1291 C 4323,1291 4326,1292 4328,1293 4329,1295 4330,1297 4330,1299 4330,1301 4329,1303 4328,1305 4326,1306 4323,1307 4319,1307 L 4227,1307 C 4224,1307 4221,1306 4219,1305 4218,1304 4217,1302 4217,1299 4217,1297 4218,1295 4219,1293 4221,1292 4224,1291 4227,1291 L 4277,1291 4306,1233 Z M 4466,1068 L 4466,1084 C 4479,1070 4493,1062 4507,1062 4515,1062 4522,1065 4528,1069 4535,1074 4540,1080 4544,1089 4551,1080 4558,1074 4565,1069 4573,1065 4580,1062 4588,1062 4599,1062 4608,1066 4615,1074 4624,1083 4629,1094 4629,1106 L 4629,1217 4642,1217 C 4646,1217 4649,1218 4650,1220 4652,1221 4653,1223 4653,1225 4653,1228 4652,1230 4650,1231 4649,1233 4646,1233 4642,1233 L 4613,1233 4613,1107 C 4613,1099 4610,1092 4605,1087 4600,1081 4595,1079 4588,1079 4582,1079 4576,1081 4570,1085 4563,1090 4556,1098 4548,1111 L 4548,1217 4561,1217 C 4565,1217 4567,1218 4569,1220 4571,1221 4572,1223 4572,1225 4572,1228 4571,1230 4569,1231 4567,1233 4565,1233 4561,1233 L 4532,1233 4532,1108 C 4532,1100 4529,1092 4524,1087 4519,1081 4513,1079 4507,1079 4501,1079 4496,1080 4490,1084 4482,1089 4474,1098 4466,1111 L 4466,1217 4479,1217 C 4483,1217 4486,1218 4487,1220 4489,1221 4490,1223 4490,1225 4490,1228 4489,1230 4487,1231 4486,1233 4483,1233 4479,1233 L 4436,1233 C 4432,1233 4430,1233 4428,1231 4426,1230 4425,1228 4425,1225 4425,1223 4426,1221 4428,1220 4430,1218 4432,1217 4436,1217 L 4450,1217 4450,1084 4436,1084 C 4432,1084 4430,1084 4428,1082 4426,1081 4425,1079 4425,1076 4425,1074 4426,1072 4428,1071 4430,1069 4432,1068 4436,1068 L 4466,1068 Z M 4818,1233 L 4818,1210 C 4795,1230 4770,1240 4744,1240 4725,1240 4710,1235 4699,1225 4688,1216 4683,1204 4683,1189 4683,1174 4690,1160 4704,1149 4719,1137 4739,1131 4766,1131 4774,1131 4782,1132 4790,1133 4799,1134 4808,1135 4818,1137 L 4818,1111 C 4818,1103 4814,1095 4806,1089 4798,1082 4786,1079 4770,1079 4757,1079 4740,1082 4717,1089 4713,1091 4711,1091 4710,1091 4708,1091 4706,1091 4704,1089 4703,1088 4702,1086 4702,1083 4702,1081 4703,1080 4704,1078 4706,1076 4713,1074 4726,1071 4745,1065 4760,1062 4771,1062 4791,1062 4806,1068 4818,1078 4829,1087 4835,1099 4835,1111 L 4835,1217 4856,1217 C 4860,1217 4863,1218 4864,1220 4866,1221 4867,1223 4867,1225 4867,1228 4866,1230 4864,1231 4863,1233 4860,1233 4856,1233 L 4818,1233 Z M 4818,1154 C 4811,1152 4803,1150 4795,1149 4786,1148 4778,1147 4768,1147 4745,1147 4727,1152 4714,1162 4704,1170 4699,1179 4699,1189 4699,1199 4703,1207 4710,1214 4718,1221 4729,1224 4743,1224 4757,1224 4770,1221 4781,1215 4793,1210 4806,1201 4818,1189 L 4818,1154 Z M 5059,1079 C 5059,1075 5060,1072 5062,1071 5063,1069 5065,1068 5067,1068 5070,1068 5072,1069 5073,1071 5075,1072 5075,1075 5075,1079 L 5075,1107 C 5075,1110 5075,1113 5073,1115 5072,1116 5070,1117 5067,1117 5065,1117 5063,1116 5062,1115 5060,1114 5060,1111 5059,1108 5058,1101 5055,1094 5047,1089 5037,1082 5023,1079 5006,1079 4988,1079 4974,1082 4964,1089 4957,1095 4953,1101 4953,1108 4953,1116 4958,1122 4966,1127 4973,1131 4984,1133 5001,1135 5023,1137 5039,1140 5047,1143 5060,1148 5069,1154 5075,1162 5081,1170 5084,1178 5084,1188 5084,1201 5077,1213 5064,1224 5051,1235 5032,1240 5007,1240 4982,1240 4961,1233 4945,1221 4945,1225 4945,1228 4944,1229 4943,1230 4943,1231 4941,1232 4940,1233 4939,1233 4937,1233 4935,1233 4933,1233 4931,1231 4930,1230 4929,1227 4929,1223 L 4929,1190 C 4929,1186 4930,1183 4931,1182 4933,1180 4935,1179 4937,1179 4939,1179 4941,1180 4943,1182 4944,1183 4945,1185 4945,1188 4945,1194 4946,1199 4949,1203 4954,1209 4961,1214 4971,1218 4980,1222 4992,1224 5006,1224 5027,1224 5043,1220 5053,1212 5063,1204 5068,1196 5068,1188 5068,1178 5063,1170 5053,1164 5042,1158 5027,1154 5007,1152 4987,1150 4973,1147 4964,1144 4956,1140 4949,1135 4944,1129 4939,1122 4937,1115 4937,1107 4937,1094 4944,1083 4957,1075 4971,1067 4987,1062 5005,1062 5027,1062 5045,1068 5059,1079 Z M 5207,1068 L 5294,1068 C 5298,1068 5301,1069 5302,1071 5304,1072 5305,1074 5305,1076 5305,1079 5304,1081 5302,1082 5301,1084 5298,1084 5294,1084 L 5207,1084 5207,1191 C 5207,1200 5211,1208 5219,1215 5226,1221 5237,1224 5251,1224 5262,1224 5274,1222 5286,1219 5299,1216 5309,1212 5316,1208 5318,1206 5320,1206 5322,1206 5324,1206 5326,1206 5327,1208 5329,1210 5329,1211 5329,1214 5329,1215 5329,1217 5327,1219 5323,1223 5313,1228 5297,1233 5282,1237 5267,1240 5253,1240 5234,1240 5219,1236 5208,1227 5197,1218 5191,1206 5191,1191 L 5191,1084 5162,1084 C 5158,1084 5155,1084 5153,1082 5152,1081 5151,1079 5151,1076 5151,1074 5152,1072 5153,1071 5155,1069 5158,1068 5162,1068 L 5191,1068 5191,1021 C 5191,1017 5192,1014 5194,1013 5195,1011 5197,1010 5199,1010 5202,1010 5204,1011 5205,1013 5207,1014 5207,1017 5207,1021 L 5207,1068 Z M 5561,1155 L 5398,1155 C 5401,1176 5409,1192 5424,1205 5438,1218 5456,1224 5478,1224 5490,1224 5502,1222 5515,1218 5528,1214 5539,1209 5547,1202 5550,1200 5552,1199 5553,1199 5556,1199 5557,1200 5559,1202 5560,1203 5561,1205 5561,1207 5561,1210 5560,1212 5558,1214 5552,1220 5541,1226 5526,1232 5510,1237 5494,1240 5478,1240 5450,1240 5428,1231 5409,1213 5391,1195 5382,1173 5382,1147 5382,1124 5390,1104 5407,1088 5425,1071 5446,1062 5471,1062 5497,1062 5519,1071 5536,1088 5553,1105 5561,1128 5561,1155 Z M 5544,1138 C 5541,1121 5533,1106 5519,1095 5506,1084 5490,1079 5471,1079 5453,1079 5436,1084 5423,1095 5410,1106 5401,1121 5398,1138 L 5544,1138 Z M 5689,1068 L 5689,1109 C 5710,1090 5726,1078 5736,1072 5746,1067 5756,1064 5764,1064 5774,1064 5783,1067 5791,1074 5799,1080 5803,1085 5803,1089 5803,1091 5802,1093 5801,1095 5799,1096 5797,1097 5795,1097 5793,1097 5792,1097 5792,1096 5791,1096 5789,1094 5787,1092 5782,1087 5778,1084 5775,1083 5772,1081 5768,1080 5765,1080 5758,1080 5750,1083 5740,1089 5730,1094 5713,1108 5689,1130 L 5689,1217 5760,1217 C 5764,1217 5766,1218 5768,1220 5770,1221 5771,1223 5771,1225 5771,1228 5770,1230 5768,1231 5766,1233 5764,1233 5760,1233 L 5634,1233 C 5631,1233 5628,1233 5626,1231 5625,1230 5624,1228 5624,1226 5624,1224 5625,1222 5626,1220 5628,1219 5630,1218 5634,1218 L 5673,1218 5673,1084 5643,1084 C 5640,1084 5637,1084 5635,1082 5634,1081 5633,1079 5633,1076 5633,1074 5634,1072 5635,1071 5637,1069 5640,1068 5643,1068 L 5689,1068 Z M 6020,994 L 6020,1217 6042,1217 C 6046,1217 6048,1218 6050,1220 6052,1221 6053,1223 6053,1225 6053,1228 6052,1230 6050,1231 6048,1233 6046,1233 6042,1233 L 6004,1233 6004,1202 C 5986,1227 5962,1240 5933,1240 5919,1240 5905,1236 5892,1228 5879,1221 5868,1210 5861,1196 5853,1181 5849,1166 5849,1151 5849,1136 5853,1121 5861,1107 5868,1093 5879,1082 5892,1074 5905,1066 5919,1062 5934,1062 5962,1062 5985,1075 6004,1101 L 6004,1010 5983,1010 C 5979,1010 5976,1009 5975,1008 5973,1006 5972,1004 5972,1002 5972,1000 5973,998 5975,996 5976,995 5979,994 5983,994 L 6020,994 Z M 6004,1151 C 6004,1131 5997,1114 5983,1100 5970,1086 5954,1079 5935,1079 5916,1079 5899,1086 5886,1100 5872,1114 5865,1131 5865,1151 5865,1171 5872,1188 5886,1203 5899,1217 5916,1224 5935,1224 5954,1224 5970,1217 5983,1203 5997,1188 6004,1171 6004,1151 Z"/>
       </g>
      </g>
      <g class="com.sun.star.drawing.PolyPolygonShape">
       <g id="id16">
        <rect class="BoundingBox" stroke="none" fill="none" x="7860" y="516" width="3172" height="1318"/>
       </g>
      </g>
      <g class="com.sun.star.drawing.ClosedBezierShape">
       <g id="id17">
        <rect class="BoundingBox" stroke="none" fill="none" x="8431" y="789" width="2063" height="285"/>
        <path fill="rgb(0,0,0)" stroke="none" d="M 8431,1068 L 8431,794 8468,794 8468,1036 8602,1036 8602,1068 8431,1068 Z M 8645,1068 L 8645,794 8740,794 C 8761,794 8777,795 8789,798 8804,801 8818,808 8829,817 8843,830 8854,845 8861,864 8869,883 8872,905 8872,930 8872,950 8870,969 8865,985 8860,1001 8854,1015 8846,1025 8838,1036 8830,1044 8821,1050 8812,1056 8801,1061 8788,1064 8776,1067 8761,1068 8745,1068 L 8645,1068 Z M 8682,1036 L 8740,1036 C 8758,1036 8772,1034 8783,1031 8793,1028 8801,1023 8807,1017 8816,1008 8823,997 8827,982 8832,967 8835,950 8835,929 8835,900 8830,878 8821,863 8811,847 8800,837 8786,832 8777,828 8761,826 8739,826 L 8682,826 8682,1036 Z M 8892,1068 L 8997,794 9036,794 9148,1068 9107,1068 9075,985 8960,985 8930,1068 8892,1068 Z M 8971,956 L 9064,956 9035,879 C 9027,856 9020,837 9016,822 9012,840 9007,857 9001,875 L 8971,956 Z M 9177,1068 L 9177,794 9281,794 C 9299,794 9313,794 9322,796 9336,798 9347,803 9356,809 9365,815 9373,824 9378,836 9384,847 9387,860 9387,873 9387,897 9379,916 9364,933 9349,949 9323,957 9284,957 L 9213,957 9213,1068 9177,1068 Z M 9213,924 L 9284,924 C 9308,924 9324,920 9334,911 9344,902 9349,890 9349,874 9349,863 9346,853 9340,845 9335,836 9327,831 9317,829 9311,827 9300,826 9284,826 L 9213,826 9213,924 Z M 9403,1073 L 9483,789 9509,789 9430,1073 9403,1073 Z M 9509,1068 L 9614,794 9653,794 9765,1068 9724,1068 9692,985 9577,985 9547,1068 9509,1068 Z M 9588,956 L 9681,956 9652,879 C 9644,856 9637,837 9633,822 9629,840 9624,857 9618,875 L 9588,956 Z M 9794,1068 L 9794,794 9889,794 C 9910,794 9926,795 9938,798 9953,801 9966,808 9978,817 9992,830 10003,845 10010,864 10017,883 10021,905 10021,930 10021,950 10018,969 10014,985 10009,1001 10002,1015 9995,1025 9987,1036 9979,1044 9970,1050 9961,1056 9950,1061 9937,1064 9924,1067 9910,1068 9893,1068 L 9794,1068 Z M 9830,1036 L 9889,1036 C 9907,1036 9921,1034 9931,1031 9942,1028 9950,1023 9956,1017 9965,1008 9971,997 9976,982 9981,967 9983,950 9983,929 9983,900 9979,878 9969,863 9960,847 9948,837 9935,832 9925,828 9910,826 9888,826 L 9830,826 9830,1036 Z M 10160,969 C 10160,932 10170,905 10191,887 10208,872 10229,865 10253,865 10281,865 10303,874 10320,892 10338,910 10346,934 10346,966 10346,992 10342,1012 10335,1027 10327,1041 10316,1053 10301,1061 10287,1069 10271,1073 10253,1073 10226,1073 10203,1064 10186,1046 10169,1028 10160,1002 10160,969 Z M 10195,969 C 10195,994 10200,1013 10211,1026 10222,1039 10236,1045 10253,1045 10270,1045 10284,1039 10295,1026 10306,1013 10312,994 10312,968 10312,943 10306,924 10295,912 10284,899 10270,893 10253,893 10236,893 10222,899 10211,912 10200,924 10195,943 10195,969 Z M 10385,1068 L 10385,869 10416,869 10416,900 C 10423,885 10430,876 10437,872 10443,867 10451,865 10458,865 10470,865 10481,869 10493,876 L 10482,907 C 10473,902 10465,900 10457,900 10449,900 10443,902 10437,906 10431,911 10427,917 10425,925 10421,937 10419,950 10419,964 L 10419,1068 10385,1068 Z"/>
       </g>
      </g>
      <g class="com.sun.star.drawing.ClosedBezierShape">
       <g id="id18">
        <rect class="BoundingBox" stroke="none" fill="none" x="9162" y="1245" width="588" height="276"/>
        <path fill="rgb(0,0,0)" stroke="none" d="M 9162,1520 L 9162,1245 9198,1245 9198,1520 9162,1520 Z M 9262,1520 L 9262,1245 9357,1245 C 9378,1245 9395,1246 9406,1249 9421,1253 9435,1259 9446,1269 9461,1281 9471,1297 9478,1316 9486,1335 9489,1357 9489,1381 9489,1402 9487,1420 9482,1437 9477,1453 9471,1466 9463,1477 9456,1487 9447,1495 9438,1502 9429,1508 9418,1512 9406,1515 9393,1518 9378,1520 9362,1520 L 9262,1520 Z M 9299,1487 L 9357,1487 C 9375,1487 9389,1486 9400,1483 9410,1479 9418,1474 9424,1468 9433,1460 9440,1448 9444,1433 9449,1419 9452,1401 9452,1380 9452,1352 9447,1330 9438,1314 9428,1299 9417,1288 9403,1283 9394,1279 9378,1277 9356,1277 L 9299,1277 9299,1487 Z M 9539,1520 L 9539,1245 9643,1245 C 9661,1245 9675,1246 9685,1248 9698,1250 9709,1254 9718,1261 9727,1267 9735,1276 9740,1287 9746,1298 9749,1311 9749,1325 9749,1348 9741,1368 9726,1384 9712,1400 9685,1408 9646,1408 L 9575,1408 9575,1520 9539,1520 Z M 9575,1376 L 9646,1376 C 9670,1376 9687,1371 9696,1363 9706,1354 9711,1342 9711,1326 9711,1314 9708,1304 9703,1296 9697,1288 9689,1283 9679,1280 9673,1278 9662,1277 9646,1277 L 9575,1277 9575,1376 Z"/>
       </g>
      </g>
      <g class="com.sun.star.drawing.ClosedBezierShape">
       <g id="id19">
        <rect class="BoundingBox" stroke="none" fill="none" x="3995" y="3510" width="1782" height="2146"/>
        <path fill="rgb(207,226,243)" stroke="none" d="M 3995,3510 C 3995,3633 4394,3733 4885,3733 5377,3733 5775,3633 5775,3510 L 5775,5433 C 5775,5556 5377,5655 4885,5655 4394,5655 3995,5556 3995,5433 L 3995,3510 Z"/>
       </g>
      </g>
      <g class="com.sun.star.drawing.ClosedBezierShape">
       <g id="id20">
        <rect class="BoundingBox" stroke="none" fill="none" x="3995" y="3287" width="1782" height="447"/>
        <path fill="rgb(226,237,247)" stroke="none" d="M 3995,3510 C 3995,3387 4394,3287 4885,3287 5377,3287 5775,3387 5775,3510 5775,3633 5377,3733 4885,3733 4394,3733 3995,3633 3995,3510 Z"/>
       </g>
      </g>
      <g class="com.sun.star.drawing.ClosedBezierShape">
       <g id="id21">
        <rect class="BoundingBox" stroke="none" fill="none" x="3995" y="3287" width="1782" height="2369"/>
       </g>
      </g>
      <g class="com.sun.star.drawing.OpenBezierShape">
       <g id="id22">
        <rect class="BoundingBox" stroke="none" fill="none" x="3984" y="3276" width="1803" height="2391"/>
        <path fill="none" stroke="rgb(0,0,0)" stroke-width="21" stroke-linejoin="round" d="M 5775,3510 C 5775,3632 5377,3732 4885,3732 4394,3732 3995,3632 3995,3510 3995,3387 4394,3287 4885,3287 5377,3287 5775,3387 5775,3510 L 5775,5432 C 5775,5555 5377,5655 4885,5655 4394,5655 3995,5555 3995,5432 L 3995,3510"/>
       </g>
      </g>
      <g class="com.sun.star.drawing.PolyPolygonShape">
       <g id="id23">
        <rect class="BoundingBox" stroke="none" fill="none" x="2076" y="1174" width="1504" height="39"/>
       </g>
      </g>
      <g class="com.sun.star.drawing.LineShape">
       <g id="id24">
        <rect class="BoundingBox" stroke="none" fill="none" x="2065" y="1166" width="1403" height="58"/>
        <path fill="none" stroke="rgb(0,0,0)" stroke-width="21" stroke-linejoin="round" d="M 2076,1212 L 3456,1177"/>
       </g>
      </g>
      <g class="com.sun.star.drawing.PolyPolygonShape">
       <g id="id25">
        <rect class="BoundingBox" stroke="none" fill="none" x="3443" y="1128" width="138" height="101"/>
        <path fill="rgb(0,0,0)" stroke="none" d="M 3456,1212 L 3549,1175 3454,1143 3456,1212 Z"/>
        <path fill="none" stroke="rgb(0,0,0)" stroke-width="21" stroke-linejoin="miter" d="M 3456,1212 L 3549,1175 3454,1143 3456,1212 Z"/>
       </g>
      </g>
      <g class="com.sun.star.drawing.PolyPolygonShape">
       <g id="id26">
        <rect class="BoundingBox" stroke="none" fill="none" x="6210" y="1174" width="1485" height="21"/>
       </g>
      </g>
      <g class="com.sun.star.drawing.LineShape">
       <g id="id27">
        <rect class="BoundingBox" stroke="none" fill="none" x="6199" y="1165" width="1384" height="41"/>
        <path fill="none" stroke="rgb(0,0,0)" stroke-width="21" stroke-linejoin="round" d="M 6210,1194 L 7571,1176"/>
       </g>
      </g>
      <g class="com.sun.star.drawing.PolyPolygonShape">
       <g id="id28">
        <rect class="BoundingBox" stroke="none" fill="none" x="7559" y="1127" width="137" height="101"/>
        <path fill="rgb(0,0,0)" stroke="none" d="M 7571,1211 L 7664,1175 7570,1142 7571,1211 Z"/>
        <path fill="none" stroke="rgb(0,0,0)" stroke-width="21" stroke-linejoin="miter" d="M 7571,1211 L 7664,1175 7570,1142 7571,1211 Z"/>
       </g>
      </g>
      <g class="com.sun.star.drawing.PolyPolygonShape">
       <g id="id29">
        <rect class="BoundingBox" stroke="none" fill="none" x="4885" y="2027" width="11" height="1263"/>
       </g>
      </g>
      <g class="com.sun.star.drawing.LineShape">
       <g id="id30">
        <rect class="BoundingBox" stroke="none" fill="none" x="4875" y="2016" width="32" height="1162"/>
        <path fill="none" stroke="rgb(0,0,0)" stroke-width="21" stroke-linejoin="round" d="M 4895,2027 L 4886,3166"/>
       </g>
      </g>
      <g class="com.sun.star.drawing.PolyPolygonShape">
       <g id="id31">
        <rect class="BoundingBox" stroke="none" fill="none" x="4837" y="3153" width="101" height="137"/>
        <path fill="rgb(0,0,0)" stroke="none" d="M 4852,3164 L 4886,3258 4921,3164 4852,3164 Z"/>
        <path fill="none" stroke="rgb(0,0,0)" stroke-width="21" stroke-linejoin="miter" d="M 4852,3164 L 4886,3258 4921,3164 4852,3164 Z"/>
       </g>
      </g>
      <g class="com.sun.star.drawing.PolyPolygonShape">
       <g id="id32">
        <rect class="BoundingBox" stroke="none" fill="none" x="4000" y="3848" width="1781" height="1462"/>
       </g>
      </g>
      <g class="com.sun.star.drawing.ClosedBezierShape">
       <g id="id33">
        <rect class="BoundingBox" stroke="none" fill="none" x="4388" y="4126" width="988" height="280"/>
        <path fill="rgb(0,0,0)" stroke="none" d="M 4478,4401 L 4478,4158 4388,4158 4388,4126 4605,4126 4605,4158 4515,4158 4515,4401 4478,4401 Z M 4583,4301 C 4583,4264 4593,4237 4614,4220 4631,4205 4652,4197 4676,4197 4704,4197 4726,4206 4743,4224 4761,4242 4769,4267 4769,4299 4769,4324 4766,4344 4758,4359 4750,4374 4739,4385 4724,4393 4710,4401 4694,4405 4676,4405 4649,4405 4626,4397 4609,4379 4592,4361 4583,4335 4583,4301 Z M 4618,4301 C 4618,4327 4623,4346 4634,4359 4645,4371 4659,4378 4676,4378 4693,4378 4707,4371 4718,4359 4729,4346 4735,4326 4735,4300 4735,4276 4729,4257 4718,4244 4707,4232 4693,4225 4676,4225 4659,4225 4645,4232 4634,4244 4623,4257 4618,4276 4618,4301 Z M 4809,4401 L 4809,4126 4843,4126 4843,4283 4922,4202 4966,4202 4890,4276 4973,4401 4932,4401 4866,4299 4843,4322 4843,4401 4809,4401 Z M 5136,4337 L 5171,4341 C 5165,4362 5155,4377 5140,4389 5126,4400 5107,4405 5084,4405 5055,4405 5032,4397 5014,4379 4998,4361 4989,4336 4989,4303 4989,4270 4998,4243 5015,4225 5032,4207 5054,4197 5082,4197 5108,4197 5130,4207 5147,4225 5163,4243 5172,4268 5172,4301 5172,4303 5172,4306 5172,4310 L 5024,4310 C 5025,4332 5031,4349 5042,4360 5053,4372 5067,4378 5084,4378 5096,4378 5107,4375 5115,4368 5124,4362 5131,4351 5136,4337 Z M 5026,4282 L 5137,4282 C 5135,4266 5131,4253 5124,4245 5113,4232 5099,4225 5082,4225 5067,4225 5054,4230 5043,4241 5033,4251 5027,4265 5026,4282 Z M 5213,4401 L 5213,4202 5243,4202 5243,4230 C 5258,4208 5279,4197 5307,4197 5319,4197 5330,4200 5340,4204 5350,4208 5357,4214 5362,4221 5367,4228 5371,4236 5373,4246 5374,4252 5375,4263 5375,4278 L 5375,4401 5341,4401 5341,4280 C 5341,4266 5340,4256 5337,4249 5334,4242 5330,4237 5323,4233 5316,4229 5309,4227 5300,4227 5285,4227 5273,4231 5262,4240 5252,4249 5247,4267 5247,4292 L 5247,4401 5213,4401 Z"/>
       </g>
      </g>
      <g class="com.sun.star.drawing.ClosedBezierShape">
       <g id="id34">
        <rect class="BoundingBox" stroke="none" fill="none" x="4653" y="4577" width="484" height="276"/>
        <path fill="rgb(0,0,0)" stroke="none" d="M 4653,4852 L 4653,4577 4748,4577 C 4769,4577 4785,4578 4797,4581 4812,4585 4826,4591 4837,4601 4851,4613 4862,4629 4869,4648 4876,4667 4880,4689 4880,4713 4880,4734 4878,4752 4873,4769 4868,4785 4861,4798 4854,4809 4846,4819 4838,4827 4829,4834 4820,4840 4809,4844 4796,4847 4783,4850 4769,4852 4752,4852 L 4653,4852 Z M 4689,4819 L 4748,4819 C 4766,4819 4780,4818 4790,4815 4801,4811 4809,4806 4815,4800 4824,4792 4830,4780 4835,4765 4840,4751 4842,4733 4842,4712 4842,4684 4838,4662 4828,4646 4819,4631 4807,4620 4794,4615 4784,4611 4769,4609 4747,4609 L 4689,4609 4689,4819 Z M 4928,4852 L 4928,4577 5031,4577 C 5052,4577 5069,4580 5082,4585 5094,4591 5104,4600 5111,4611 5119,4623 5122,4635 5122,4647 5122,4659 5119,4670 5113,4681 5106,4691 5097,4699 5084,4706 5100,4711 5113,4719 5122,4731 5131,4743 5136,4756 5136,4772 5136,4785 5133,4797 5127,4808 5122,4819 5115,4828 5107,4834 5099,4840 5089,4844 5077,4847 5065,4850 5051,4852 5033,4852 L 4928,4852 Z M 4965,4692 L 5024,4692 C 5040,4692 5052,4691 5059,4690 5068,4687 5075,4682 5080,4676 5084,4669 5087,4661 5087,4652 5087,4643 5084,4635 5080,4628 5076,4621 5069,4616 5061,4613 5053,4611 5039,4609 5019,4609 L 4965,4609 4965,4692 Z M 4965,4819 L 5033,4819 C 5045,4819 5053,4819 5058,4818 5066,4817 5073,4814 5079,4811 5084,4807 5089,4802 5093,4795 5096,4789 5098,4781 5098,4772 5098,4762 5095,4753 5090,4746 5085,4738 5078,4733 5068,4730 5059,4727 5046,4725 5028,4725 L 4965,4725 4965,4819 Z"/>
       </g>
      </g>
     </g>
    </g>
   </g>
  </g>
 </g>
</svg>